<svg width="124.113281" height="48.000000" viewBox="0 0 124.113 48" fill="none" xmlns="http://www.w3.org/2000/svg" xmlns:xlink="http://www.w3.org/1999/xlink">
	<desc>
			Created with Pixso.
	</desc>
	<defs>
		<clipPath id="clip333_1358">
			<rect width="124.112823" height="48.000000" fill="white" fill-opacity="0"/>
		</clipPath>
	</defs>
	<rect width="124.112823" height="48.000000" fill="#FFFFFF" fill-opacity="0"/>
	<g clip-path="url(#clip333_1358)">
		<path d="M71.2969 34.5278C73.627 34.2827 78.7266 33.7466 79.6367 34.7803C80.5547 35.8232 78.6172 40.1138 77.75 42.0317L77.748 42.0352C77.4844 42.6167 78.0488 42.8501 78.6406 42.4116C82.498 39.5562 83.4863 33.5742 82.7012 32.7114C81.916 31.853 75.1836 31.1143 71.0781 33.6743C70.4453 34.0649 70.5527 34.6084 71.2559 34.5322L71.2969 34.5278ZM50.1035 45C59.0645 45 69.4707 42.4971 76.6504 37.8066C77.8398 37.0249 76.8223 35.8618 75.6074 36.3198C67.5625 39.3467 58.8105 40.8052 50.8574 40.8052C39.0625 40.8052 27.6445 37.9404 18.4102 33.1782C17.6035 32.7588 17 33.4932 17.6719 34.0317C26.2285 40.8813 37.5391 45 50.1035 45Z" fill="#FF9900" fill-opacity="1.000000" fill-rule="evenodd"/>
		<path d="M14.2207 31.1621C14.5059 31.2959 14.8711 31.2812 15.123 31.0811L15.1348 31.0908C15.8984 30.4902 17.2852 29.4175 18.0664 28.8408C18.377 28.6118 18.3242 28.2451 18.0762 27.9399C17.377 27.082 16.6348 26.3857 16.6348 24.7988L16.6348 19.5171C16.6348 19.3369 16.6367 19.1572 16.6367 18.9795C16.6504 16.9531 16.6621 15.103 14.9512 13.6875C13.4824 12.4385 11.0527 12 9.19141 12C5.55664 12 1.49609 13.2012 0.640625 17.186C0.554688 17.6104 0.898438 17.8345 1.21094 17.8965L4.92188 18.249C5.26562 18.2349 5.51758 17.9346 5.58203 17.6294C5.90039 16.2568 7.20117 15.5942 8.6582 15.5942C9.44336 15.5942 10.3379 15.8516 10.8047 16.4761C11.2832 17.1006 11.2754 17.9321 11.2695 18.6787C11.2676 18.7637 11.2676 18.8481 11.2676 18.9307L11.2676 19.3691C9.05078 19.5933 6.15234 19.7363 4.07617 20.5469C1.68359 21.4619 0 23.3354 0 26.0854C0 29.6084 2.50586 31.3672 5.72266 31.3672C8.44336 31.3672 9.92773 30.7998 12.0254 28.9028C12.7246 29.7939 12.9512 30.228 14.2207 31.1621ZM65.2539 31.0811C65.002 31.2812 64.6367 31.2959 64.3516 31.1621C63.082 30.228 62.8516 29.7939 62.1562 28.9028C60.0586 30.7998 58.5703 31.3672 55.8535 31.3672C52.6328 31.3672 50.1309 29.6084 50.1309 26.0854C50.1309 23.3354 51.8086 21.4619 54.207 20.5469C56.2832 19.7363 59.1836 19.5933 61.3984 19.3691L61.3984 18.9307C61.3984 18.8486 61.3984 18.7651 61.4004 18.6807C61.4062 17.9336 61.4141 17.1011 60.9297 16.4761C60.4688 15.8516 59.5762 15.5942 58.7852 15.5942C57.3281 15.5942 56.0312 16.2568 55.7129 17.6294C55.6484 17.9346 55.3965 18.2349 55.0469 18.249L51.3418 17.8965C51.0293 17.8345 50.6797 17.6104 50.7715 17.186C51.6211 13.2012 55.6875 12 59.3223 12C61.1836 12 63.6152 12.4385 65.082 13.6875C66.793 15.103 66.7812 16.9531 66.7676 18.9795C66.7676 19.1572 66.7656 19.3369 66.7656 19.5171L66.7656 24.7988C66.7656 26.3857 67.5078 27.082 68.207 27.9399C68.4492 28.2451 68.5039 28.6118 68.1914 28.8408C67.4121 29.4175 66.0234 30.4902 65.2598 31.0908L65.2539 31.0811ZM21.7441 31.1289L25.5684 31.1289C25.9766 31.1289 26.3047 30.8477 26.3047 30.4995L26.3047 21.2808C26.3047 21.2085 26.3047 21.1353 26.3047 21.0615C26.3008 19.0732 26.2969 16.4854 28.9453 16.4854C31.3848 16.4854 31.3438 18.7876 31.3086 20.6621C31.3047 20.8755 31.3008 21.083 31.3008 21.2808L31.3066 30.4995C31.3066 30.8335 31.6074 31.105 31.9961 31.1289L35.8145 31.1289C36.2227 31.1289 36.5508 30.8477 36.5508 30.4995L36.5508 21.2808C36.5508 21.2036 36.5508 21.124 36.5508 21.0415C36.5469 20.0688 36.543 18.7573 36.9062 17.9487C37.2988 17.0718 38.2656 16.5234 39.1914 16.5234C40.2988 16.5234 41.1543 16.8525 41.4395 18.0205C41.5859 18.5806 41.5664 19.876 41.5527 20.7427C41.5508 20.9526 41.5469 21.1377 41.5469 21.2808L41.5469 30.4995C41.5469 30.8335 41.8535 31.105 42.2363 31.1289L46.0547 31.1289C46.4629 31.1289 46.791 30.8477 46.791 30.4995L46.7969 19.522C46.7969 19.2539 46.8008 18.981 46.8066 18.7051C46.8379 17.061 46.8691 15.3218 45.834 14.0688C44.7637 12.7534 43.0098 12.167 41.4082 12.167C39.1543 12.167 37.0508 13.1919 36.125 15.3892C35.0508 13.1919 33.5547 12.167 31.1621 12.167C28.8066 12.167 27.0586 13.1919 26.127 15.3892L26.0586 15.3892L26.0586 13.1152C26.0312 12.8008 25.7344 12.5483 25.3633 12.5337L21.7988 12.5337C21.3887 12.5337 21.0605 12.8105 21.0605 13.1582L21.0605 30.5522C21.0879 30.8618 21.3789 31.105 21.7441 31.1289ZM96.2441 12.167C101.918 12.167 104.99 16.4854 104.99 21.9766C104.99 27.2822 101.596 31.4912 96.2441 31.4912C90.6719 31.4912 87.6387 27.1724 87.6387 21.791C87.6387 16.376 90.7109 12.167 96.2441 12.167ZM108.539 31.1289L112.348 31.1289C112.756 31.1289 113.09 30.8477 113.094 30.4995L113.094 21.1333C113.094 19.9604 113.164 18.9023 113.703 17.8394C114.127 17.0005 114.982 16.4473 115.912 16.4473C118.35 16.4473 118.326 18.8188 118.309 20.6792C118.307 20.835 118.307 20.9863 118.307 21.1333L118.307 30.5806C118.344 30.8765 118.635 31.105 118.984 31.1289L122.818 31.1289C123.195 31.1289 123.512 30.8857 123.555 30.5806L123.555 19.6313C123.555 17.9487 123.555 15.6084 122.555 14.2168C121.479 12.7148 119.807 12.167 118.092 12.167C115.451 12.167 113.949 13.3013 112.879 15.6802L112.809 15.6802L112.809 13.02C112.734 12.7485 112.459 12.5483 112.127 12.5337L108.582 12.5337C108.195 12.5337 107.877 12.7817 107.846 13.1011L107.852 30.4995C107.852 30.8335 108.158 31.105 108.539 31.1289ZM71.418 15.6035L71.418 13.1152C71.418 12.7388 71.7402 12.4863 72.1289 12.4863L84.6973 12.4863C85.0996 12.4863 85.4238 12.7437 85.4238 13.1152L85.4238 15.2461C85.418 15.6035 85.0781 16.0708 84.4766 16.8096L77.9629 25.0513C80.3848 24.999 82.9395 25.3184 85.1328 26.4146C85.627 26.6626 85.7617 27.0249 85.7988 27.3823L85.7988 30.0371C85.7988 30.3994 85.3477 30.8237 84.875 30.6045C81.0078 28.8076 75.8711 28.6118 71.5957 30.6235C71.1602 30.8335 70.7031 30.4141 70.7031 30.0518L70.7031 27.5298C70.7031 27.125 70.709 26.4336 71.166 25.8188L78.7109 16.228L72.1445 16.228C71.7402 16.228 71.418 15.9756 71.418 15.6035ZM96.2773 15.7183C93.459 15.7183 93.2812 19.1216 93.2812 21.2427L93.2812 21.3208C93.2812 23.4775 93.2793 27.9067 96.2441 27.9067C99.207 27.9067 99.3477 24.2456 99.3477 22.0151C99.3477 20.5469 99.2773 18.7925 98.7773 17.4009C98.3477 16.1899 97.4922 15.7183 96.2773 15.7183ZM11.2676 23.0005C11.2676 22.9409 11.2676 22.8809 11.2676 22.8203L11.2676 22.0864C8.50391 22.0864 5.58203 22.6108 5.58203 25.4995C5.58203 26.9629 6.4375 27.9541 7.90625 27.9541C8.98242 27.9541 9.94531 27.3677 10.5527 26.4146C11.2715 25.2954 11.2695 24.2417 11.2676 23.0005ZM61.3984 22.8203C61.3984 22.8809 61.3984 22.9409 61.3984 23.0005C61.4004 24.2417 61.4023 25.2954 60.6836 26.4146C60.0762 27.3677 59.1074 27.9541 58.0371 27.9541C56.5684 27.9541 55.709 26.9629 55.709 25.4995C55.709 22.6108 58.6289 22.0864 61.3984 22.0864L61.3984 22.8203Z" fill="#000000" fill-opacity="1.000000" fill-rule="evenodd"/>
	</g>
</svg>
