<svg width="126.369141" height="48.000000" viewBox="0 0 126.369 48" fill="none" xmlns="http://www.w3.org/2000/svg" xmlns:xlink="http://www.w3.org/1999/xlink">
	<desc>
			Created with Pixso.
	</desc>
	<defs>
		<clipPath id="clip333_1359">
			<rect width="126.369431" height="48.000000" fill="white" fill-opacity="0"/>
		</clipPath>
	</defs>
	<rect width="126.369431" height="48.000000" fill="#FFFFFF" fill-opacity="0"/>
	<g clip-path="url(#clip333_1359)">
		<path d="M125.572 30.5635C120.316 38.4604 111.994 36.1689 109.494 34.375C108.43 35.0146 106.564 36.417 104.076 36.2549C98.7793 35.9102 96.8828 29.2007 96.8828 29.2007C96.9199 29.2275 95.3047 29.6948 94.4316 29.6865C94.4199 31.6543 92.5 36.3545 87.3203 36.2944C81.5098 36.2275 80.3281 28.5532 80.3281 28.5532C80.3281 28.5532 79.75 29.2651 77.5508 29.9741C77.6602 28.4624 77.5801 36.0645 70.6133 36.1763C65.1074 36.2646 63.6211 28.4346 63.6211 28.4346C63.6211 28.4346 62.666 29.3145 60.8145 29.6196C60.9316 28.083 60.7402 36.2021 53.7734 36.1763C49.0664 36.1587 47.457 31.353 47.582 30.686C47.7422 29.8359 45.9902 36.2959 41.418 36.1948C39.5293 36.146 38.123 34.9351 37.2402 33.3203C36.0586 34.519 34.3418 36.1948 32.418 36.1948C28.9629 36.1948 27.4395 33.6338 27.6973 26.3179C27.7188 25.4502 27.6484 25.1089 26.6758 24.979C26.0918 24.8926 25.4922 24.729 24.8594 24.6431C24.6562 25.2432 22.9355 36 17.0195 36.2041C15.0352 36.2725 13.9492 34.7485 13.0586 33.6172C11.6914 35.2192 9.88672 36.2549 7.31836 36.2549C2.96484 36.2549 0 33.1362 0 29.2896C0 25.4424 2.96484 22.3242 7.31836 22.3242C8.08789 22.3242 8.30469 22.4219 9.00586 22.604C7.56055 10.9365 10.9746 9.11279 13.9629 9.11279C16.8301 9.11279 21.7285 15.0122 14.8359 29.9751C16.3672 34.438 19.666 34.1855 21.252 24.998C21.5742 23.1309 20.7109 20.6104 22.0527 20.2588C24.5059 19.6162 24.7676 21.5444 25.918 21.8657C27.1328 22.2056 27.8438 22.1724 29.0117 22.3887C31.0059 22.7339 31.7852 23.6841 31.541 25.7998C31.25 28.4766 30.7383 32.373 32.2969 32.8481C33.4199 33.1929 35.4688 31.1294 35.8281 30C36.1875 28.8711 36.2637 28.4844 36.2949 27.6562C36.3438 25.8862 36.4043 24.5884 36.7461 23.25C36.8906 22.7319 37.0566 22.3887 37.7188 22.3652C38.2637 22.353 39.2578 22.208 39.6953 22.5103C40.2793 22.8989 40.207 23.2935 40.1406 24.3315C39.4609 39.1353 44.6875 31.7451 46.2441 25.8281C45.6895 19.1367 46.0703 9.23535 50.8027 9.06934C53.2617 8.98291 54.3496 10.73 54.4707 12.0342C54.8086 15.7168 52.9121 21.8174 50.4199 25.9199C48.9941 34.2905 56.6484 35.9458 57.873 29.2642C55.8711 28.4204 53.707 25.0044 55.4668 23.3398C56.4551 22.4053 60.5703 23.7476 60.6367 26.6748C62.6543 26.1963 62.9238 25.1865 62.9531 25.354C62.3984 18.6631 62.9121 9.23584 67.6426 9.06934C70.1035 8.9834 71.1914 10.73 71.3105 12.0342C71.6484 15.7168 69.7539 21.8174 67.2598 25.9199C65.8359 34.2905 73.4902 35.9458 74.7148 29.2642C73.2305 29.0107 70.1016 25.3774 71.9062 23.3398C72.873 22.251 76.9707 24.5156 77.4297 26.7715C79.3691 26.2856 79.6309 25.3076 79.6602 25.4722C79.1055 18.7817 79.6191 9.354 84.3496 9.18799C86.8105 9.10156 87.8984 10.8486 88.0176 12.1528C88.3555 15.8354 86.4609 21.936 83.9668 26.0386C82.543 34.4097 90.1973 36.0645 91.4219 29.3828C89.3828 29.082 86.4883 25.2456 88.8184 23.2832C89.75 22.499 93.3086 24.5347 94.1406 26.8569C95.2969 26.8174 96.0176 26.4634 96.1719 26.4277C94.3242 18.5732 95.7012 9.14844 100.789 9.06982C103.541 9.02734 106.23 10.3877 105.049 17.8608C103.922 24.9907 99.873 27.9829 99.8828 28.0283C100.117 28.8828 102.195 36.0312 107.43 32.2593C107.158 31.7158 106.887 31.1602 106.736 30.4873C105.869 26.5679 107.572 22.1406 112.203 21.4248C114.857 21.0151 117.355 22.1597 117.752 24.7412C118.402 28.9644 114.098 32.0234 112.463 32.687C111.729 32.3179 119.105 36.5107 123.482 28.1079C123.736 27.6284 124.043 27.6689 124.439 27.916C124.719 28.0908 126.314 29.4297 125.572 30.5635ZM10.4844 28.252C10.2617 27.6616 9.80469 26.3608 9.64258 25.7974C8.75195 25.1113 8.11719 25 6.97461 25C4.43555 25 2.93945 27.0811 2.93945 29.3247C2.93945 31.5684 4.56836 33.6494 7.10742 33.6494C9.30859 33.6494 10.9844 32.3237 11.4941 30.4463C11.1367 29.7144 10.7832 29.0415 10.4844 28.252ZM13.9004 12.2017C12.1152 12.2017 11.5098 15.9741 11.6289 19.1924C11.7324 22.0376 12.6289 24.543 13.0938 25.665C13.2129 25.8062 13.1914 25.7144 13.2969 25.8638C16.3945 19.8472 15.1094 12.2017 13.9004 12.2017ZM51.0566 12.3198C48.75 12.0854 48.7656 20.6001 49.0527 22.5103C50.25 20.812 52.3301 12.7773 51.0566 12.3198ZM67.8984 12.3198C65.5918 12.0854 65.6055 20.6001 65.8926 22.5103C67.0898 20.812 69.1719 12.7773 67.8984 12.3198ZM84.6055 12.4385C82.2988 12.2041 82.3125 20.7188 82.5996 22.6289C83.7969 20.9302 85.8789 12.8955 84.6055 12.4385ZM101.045 11.8213C97.4512 12.4609 98.2871 23.0791 98.834 24.9414C103.066 19.7891 103.154 11.6279 101.045 11.8213ZM114.51 25.0903C114.328 24.4131 113.414 24.0513 112.783 24.1406C110.98 24.3589 109.23 26.3506 109.908 29.3823C110.059 30.0576 110.436 30.6792 110.43 30.6587C114.467 28.2578 114.811 26.3657 114.51 25.0903ZM38.4258 20.022C37.9102 20.022 37.4062 19.8862 36.9785 19.6328C36.5488 19.3789 36.2148 19.0181 36.0176 18.5957C35.8203 18.1733 35.7676 17.709 35.8691 17.2607C35.9688 16.8125 36.2168 16.4009 36.582 16.0776C36.9473 15.7544 37.4121 15.5342 37.916 15.4453C38.4219 15.356 38.9473 15.4019 39.4238 15.5767C39.9004 15.7515 40.3066 16.0479 40.5938 16.4277C40.8789 16.8076 41.0332 17.2544 41.0332 17.7114C41.0332 18.0146 40.9648 18.3154 40.834 18.5957C40.7031 18.876 40.5117 19.1304 40.2695 19.3452C40.0273 19.5596 39.7402 19.73 39.4238 19.8457C39.1074 19.9619 38.7676 20.022 38.4258 20.022Z" fill="#0D0C22" fill-opacity="1.000000" fill-rule="evenodd"/>
	</g>
</svg>
