<svg width="128.626953" height="48.000000" viewBox="0 0 128.627 48" fill="none" xmlns="http://www.w3.org/2000/svg" xmlns:xlink="http://www.w3.org/1999/xlink">
	<desc>
			Created with Pixso.
	</desc>
	<defs>
		<clipPath id="clip333_1360">
			<rect width="128.626022" height="48.000000" fill="white" fill-opacity="0"/>
		</clipPath>
	</defs>
	<rect width="128.626022" height="48.000000" fill="#FFFFFF" fill-opacity="0"/>
	<g clip-path="url(#clip333_1360)">
		<path d="M13.8887 13.1064L13.8887 22.1943L4.4707 22.1943L4.4707 13.1064L0 13.1064L0 34.7998L4.4707 34.7998L4.4707 26.0073L13.8887 26.0073L13.8887 34.7998L18.3594 34.7998L18.3594 13.1064L13.8887 13.1064ZM64.0879 19.4531C64.0879 17.5483 65.5098 16.9448 67.0664 16.9448C68.3223 16.9448 69.9805 17.791 71.0645 18.8179L73.8418 15.9175C72.4551 14.2559 69.6426 13.1064 67.3418 13.1064C62.7402 13.1064 59.4141 15.4946 59.4141 19.4531C59.4141 26.7974 69.543 24.4678 69.543 28.5776C69.543 29.8452 68.1543 30.9653 66.5625 30.9653C64.0547 30.9653 63.2422 29.8784 62.0898 28.729L59.0078 31.5693C60.9805 33.7144 63.4121 34.8037 66.3242 34.8037C70.6953 34.8037 74.2109 32.3867 74.2109 28.6084C74.2109 20.4546 64.082 22.9883 64.082 19.4531L64.0879 19.4531ZM48.8086 18.605C46.709 18.605 45.2441 19.1445 43.8262 20.3774L43.8262 13.2368L39.5781 13.2368L39.5781 26.4717C39.5781 31.4258 43.6211 34.8193 48.1602 34.8193C53.1992 34.8193 57.6309 31.3657 57.6309 26.7144C57.6309 22.1206 53.5527 18.6069 48.8086 18.6069L48.8086 18.605ZM123.531 28.9014C123.531 30.373 124.244 31.334 126.75 31.334L126.75 31.3301C127.225 31.3301 127.768 31.3013 128.24 31.272L127.191 34.6948C126.633 34.7837 126.064 34.8242 125.496 34.8149C121.873 34.8149 119.232 33.1045 119.232 29.7109L119.232 16.4434L123.531 14.7329L123.531 19.0879L127.426 19.0879L127.426 22.3882L123.531 22.3882L123.531 28.9014ZM85.459 18.4097C90.5059 18.4097 94.9277 21.856 94.9277 26.5151L94.9258 26.5151C94.9258 31.1104 90.8477 34.6226 86.1055 34.6226C84.0059 34.6226 82.5391 34.0811 81.123 32.8501L81.123 40.0005L76.877 40.0005L76.877 26.7578C76.877 21.8037 80.918 18.4097 85.459 18.4097ZM31.584 30.105C32.2773 29.4902 32.666 28.6562 32.666 27.7871L32.666 18.4951L36.8926 18.4951L36.8926 27.7871C36.8926 29.6514 36.0566 31.4395 34.5684 32.7578C33.082 34.0762 31.0645 34.8169 28.9609 34.8169C26.8574 34.8169 24.8398 34.0762 23.3516 32.7578C21.8652 31.4395 21.0293 29.6514 21.0293 27.7871L21.0293 18.4951L25.2695 18.4951L25.2695 27.7871C25.2695 28.6562 25.6582 29.4902 26.3535 30.105C27.0469 30.7197 27.9863 31.0649 28.9688 31.0649C29.9492 31.0649 30.8906 30.7197 31.584 30.105ZM90.0938 28.8418C90.623 28.1392 90.9062 27.3135 90.9062 26.4688C90.9062 25.3359 90.3984 24.2495 89.4941 23.4487C88.5918 22.6475 87.3652 22.1978 86.0879 22.1978C85.1348 22.1978 84.2031 22.4482 83.4102 22.9175C82.6172 23.3867 82 24.0537 81.6348 24.834C81.2695 25.6147 81.1738 26.4736 81.3613 27.3018C81.5469 28.1304 82.0059 28.8916 82.6797 29.4888C83.3535 30.0859 84.2129 30.4927 85.1465 30.6577C86.082 30.8228 87.0508 30.7378 87.9316 30.4146C88.8125 30.0913 89.5645 29.5439 90.0938 28.8418ZM48.7832 31.0317C47.8301 31.0317 46.8984 30.7812 46.1055 30.312C45.3125 29.8428 44.6953 29.1758 44.3301 28.395C43.9668 27.6147 43.8711 26.7559 44.0566 25.9272C44.2422 25.0991 44.7012 24.3379 45.375 23.7407C46.0488 23.1431 46.9082 22.7363 47.8438 22.5718C48.7773 22.4067 49.7461 22.4917 50.627 22.8149C51.5078 23.1382 52.2598 23.6855 52.791 24.3877C53.3203 25.0903 53.6016 25.916 53.6016 26.7607C53.6016 27.8936 53.0938 28.98 52.1914 29.7808C51.2871 30.582 50.0605 31.0317 48.7832 31.0317Z" fill="#33475B" fill-opacity="1.000000" fill-rule="evenodd"/>
		<path d="M108.607 18.3496L108.607 14.6064C109.164 14.3755 109.637 14.0088 109.969 13.5488C110.301 13.0889 110.479 12.5552 110.482 12.0088L110.482 11.9219C110.479 11.1587 110.137 10.4277 109.527 9.88818C108.92 9.34863 108.094 9.04443 107.232 9.04248L107.135 9.04248C106.273 9.04443 105.449 9.34863 104.84 9.88818C104.232 10.4277 103.889 11.1587 103.887 11.9219L103.887 12.0088C103.889 12.5552 104.066 13.0889 104.398 13.5488C104.73 14.0088 105.203 14.3755 105.762 14.6064L105.762 18.3496C104.156 18.5669 102.645 19.1562 101.381 20.0581L89.7832 12.0615C89.8672 11.7979 89.9102 11.5254 89.916 11.252C89.916 10.6094 89.7012 9.98145 89.3008 9.44678C88.8984 8.91211 88.3262 8.49512 87.6562 8.24854C86.9883 8.00195 86.252 7.93701 85.5391 8.06152C84.8281 8.18604 84.1758 8.49512 83.6621 8.94873C83.1484 9.40234 82.7988 9.98047 82.6562 10.6104C82.5156 11.2402 82.5859 11.8936 82.8633 12.4873C83.1406 13.0811 83.6094 13.5889 84.2109 13.9463C84.8125 14.3037 85.5215 14.4951 86.2461 14.4961C86.8828 14.4937 87.5078 14.3433 88.0586 14.0591L99.459 21.9258C98.4316 23.2988 97.8965 24.9146 97.9219 26.562C97.9473 28.209 98.5332 29.8115 99.6016 31.1592L96.1328 34.2344C95.8535 34.1558 95.5625 34.1138 95.2715 34.1099C94.6758 34.1099 94.0938 34.2666 93.5977 34.5601C93.1016 34.853 92.7168 35.27 92.4883 35.7578C92.2598 36.2456 92.2012 36.7822 92.3164 37.3003C92.4336 37.8179 92.7207 38.2935 93.1406 38.667C93.5625 39.0405 94.0996 39.2944 94.6836 39.3975C95.2676 39.5005 95.873 39.4478 96.4238 39.2456C96.9746 39.0435 97.4453 38.7017 97.7754 38.2627C98.1055 37.8237 98.2832 37.3076 98.2832 36.7793C98.2793 36.5205 98.2324 36.2632 98.1426 36.0166L101.576 32.9741C102.695 33.7329 103.996 34.2544 105.379 34.4995C106.762 34.7441 108.189 34.7056 109.553 34.3872C110.916 34.0684 112.18 33.478 113.246 32.6606C114.312 31.8433 115.154 30.8208 115.707 29.6714C116.26 28.522 116.51 27.2754 116.436 26.0273C116.361 24.7798 115.967 23.563 115.283 22.4707C114.598 21.3784 113.641 20.4395 112.482 19.7251C111.326 19.0112 110 18.5405 108.607 18.3496ZM107.186 30.6621C106.246 30.6621 105.328 30.415 104.547 29.9526C103.766 29.4902 103.156 28.833 102.797 28.064C102.438 27.2949 102.344 26.4482 102.527 25.6318C102.711 24.8154 103.162 24.0654 103.826 23.4771C104.492 22.8882 105.338 22.4873 106.258 22.3252C107.18 22.1626 108.135 22.2461 109.002 22.5645C109.871 22.8833 110.611 23.4224 111.133 24.1147C111.656 24.8066 111.934 25.6206 111.934 26.4531C111.934 27.5693 111.434 28.6401 110.543 29.4292C109.652 30.2188 108.445 30.6621 107.186 30.6621Z" fill="#FF7A59" fill-opacity="1.000000" fill-rule="nonzero"/>
	</g>
</svg>
