<svg width="125.240234" height="48.000000" viewBox="0 0 125.24 48" fill="none" xmlns="http://www.w3.org/2000/svg" xmlns:xlink="http://www.w3.org/1999/xlink">
	<desc>
			Created with Pixso.
	</desc>
	<defs>
		<clipPath id="clip333_1362">
			<rect width="125.241127" height="48.000000" fill="white" fill-opacity="0"/>
		</clipPath>
	</defs>
	<rect width="125.241127" height="48.000000" fill="#FFFFFF" fill-opacity="0"/>
	<g clip-path="url(#clip333_1362)">
		<path d="M17.2227 38.0664C15.3379 38.3594 13.4199 38.4473 11.4375 38.6816L5.38867 22.9785L5.38867 39.3555C3.50391 39.5312 1.78516 39.7656 0 40L0 10L5.02539 10L11.9004 27.022L11.9004 10L17.2227 10L17.2227 38.0664ZM27.6348 20.9863C29.6836 20.9863 32.8242 20.8984 34.709 20.8984L34.709 25.5859C32.3613 25.5859 29.6172 25.5859 27.6348 25.6738L27.6348 32.6465C30.7422 32.4707 33.8496 32.2363 36.9883 32.1484L36.9883 36.6597L22.3457 37.6855L22.3457 10L36.9883 10L36.9883 14.6875L27.6348 14.6875L27.6348 20.9863ZM56.6582 14.6875L51.1699 14.6875L51.1699 36.25C49.3848 36.25 47.5996 36.25 45.8809 36.3086L45.8809 14.6875L40.3945 14.6875L40.3945 10L56.6582 10L56.6582 14.6875ZM65.252 20.6641L72.4902 20.6641L72.4902 25.3516L65.252 25.3516L65.252 35.9863L60.0625 35.9863L60.0625 10L74.8379 10L74.8379 14.6875L65.252 14.6875L65.252 20.6641ZM83.4316 31.8848C86.4414 31.9434 89.4805 32.1484 92.4238 32.2949L92.4238 36.9238C87.6973 36.6602 82.9688 36.3965 78.1426 36.3086L78.1426 10L83.4316 10L83.4316 31.8848ZM96.8867 37.2461C98.5723 37.334 100.357 37.4219 102.076 37.5977L102.076 10L96.8867 10L96.8867 37.2461ZM125.248 10L118.537 24.2676L125.248 40C123.264 39.7656 121.281 39.4434 119.297 39.1504L115.496 30.4785L111.629 38.4473C109.711 38.1543 107.861 38.0664 105.943 37.832L112.754 24.0918L106.604 10L112.289 10L115.76 17.8809L119.463 10L125.248 10L125.248 10Z" fill="#D81F26" fill-opacity="1.000000" fill-rule="nonzero"/>
	</g>
</svg>
