<svg width="145.550781" height="48.000000" viewBox="0 0 145.551 48" fill="none" xmlns="http://www.w3.org/2000/svg" xmlns:xlink="http://www.w3.org/1999/xlink">
	<desc>
			Created with Pixso.
	</desc>
	<defs>
		<clipPath id="clip333_1361">
			<rect width="145.550507" height="48.000000" fill="white" fill-opacity="0"/>
		</clipPath>
	</defs>
	<rect width="145.550507" height="48.000000" fill="#FFFFFF" fill-opacity="0"/>
	<g clip-path="url(#clip333_1361)">
		<path d="M23.9688 6.08154L2.35547 7.47754C0.621094 7.61475 0 8.59912 0 9.8125L0 30.7104C0 31.6489 0.388672 32.4502 1.29492 33.5259L6.39258 39.3628C7.2207 40.3013 7.97266 40.5068 9.57617 40.4385L34.6582 39.0879C36.7793 38.9507 37.375 38.0806 37.375 36.6157L37.375 13.1084C37.375 12.3071 36.9863 12.1011 35.8477 11.3687L28.9629 7.08838C27.3066 6.0127 26.6074 5.87549 23.9688 6.08154ZM10.0996 12.7134C8.0625 12.8379 7.60938 12.8657 6.44531 12.0327L3.49414 9.97266C3.18359 9.7207 3.33984 9.37744 4.08984 9.30859L24.8477 7.9585C26.582 7.8208 27.5137 8.37012 28.1875 8.82812L31.7578 11.0942C31.9141 11.1401 32.3027 11.5518 31.8359 11.5518L10.3789 12.6963C10.2832 12.7021 10.1895 12.708 10.0996 12.7134ZM106.5 13.6938C106.5 14.9038 105.371 15.8936 103.992 15.8936C102.613 15.8936 101.484 14.9038 101.484 13.6938C101.484 12.4473 102.613 11.4575 103.992 11.4575C105.371 11.4575 106.5 12.4473 106.5 13.6938ZM50.7012 20.2197L50.7012 34.7749L46.5215 34.7749L46.5215 13.4009L50.2832 13.4009L62.2363 27.9189L62.5293 27.9189L62.5293 13.4009L66.709 13.4009L66.709 34.7749L62.9473 34.7749L50.9941 20.2197L50.7012 20.2197ZM7.73828 36.4097L7.73828 16.4502C7.73828 15.5806 8.04883 15.1685 8.95508 15.0996L33.5957 13.8179C34.4238 13.7495 34.8125 14.23 34.8125 15.0996L34.8125 34.9219C34.8125 35.792 34.6582 36.5244 33.2852 36.5928L9.70703 37.8062C8.33398 37.875 7.73828 37.4858 7.73828 36.4097ZM91.2441 18.6802L91.2441 14.6104L95.4238 14.6104L95.4238 18.6802L99.3945 18.6802L99.3945 21.6133L95.4238 21.6133L95.4238 29.5688C95.4238 31.1821 96.2168 31.8784 97.9727 31.8784C98.5586 31.8784 98.8926 31.8418 99.3945 31.8052L99.3945 34.665C98.7676 34.7749 97.9727 34.8481 97.1797 34.8481C92.916 34.8481 91.2441 33.6016 91.2441 30.4487L91.2441 21.6133L88.3184 21.6133L88.3184 18.6802L91.2441 18.6802ZM30.3359 18.8076C31.0078 18.7393 31.1641 18.1211 31.0078 17.5259L25.8047 17.7778C25.0547 17.8467 24.4336 18.396 24.5898 19.1284L26.5566 19.3345L26.5566 28.5586L18.8164 18.1211L13.2012 18.4644C12.1387 18.5332 11.75 19.4028 11.9062 19.998L13.7949 20.1353L13.7949 33.3198L12.4238 33.6631C11.9062 33.8003 11.75 34.4644 11.9062 34.7388L17.1348 34.4644C19.0234 34.4644 19.0234 33.251 19.0234 33.251L16.668 32.7935L16.668 22.8135L24.0977 33.1367C25.0039 34.1436 25.3145 34.4873 26.5293 34.4873C27.3066 34.4873 28.2129 34.2124 29.1953 33.7549L29.1953 19.0137L30.3359 18.8076ZM87.4395 26.6724C87.4395 31.9521 84.0547 35.105 78.5371 35.105C73.0195 35.105 69.6758 31.9521 69.6348 26.6724C69.6348 21.4297 73.0625 18.2402 78.5371 18.2402C84.0547 18.2402 87.4395 21.4297 87.4395 26.6724ZM126.438 26.6724C126.438 31.9521 123.051 35.105 117.535 35.105C111.975 35.105 108.631 31.9521 108.631 26.6724C108.631 21.4297 112.059 18.2402 117.535 18.2402C123.051 18.2402 126.438 21.4297 126.438 26.6724ZM133.082 34.7749L128.902 34.7749C128.902 34.7749 128.902 18.5698 128.861 18.5698L132.916 18.5698L132.916 21.1733L133.209 21.1733C134.086 19.3398 135.926 18.2402 138.684 18.2402C142.779 18.2402 145.037 20.4033 145.037 24.2896L145.037 34.7749L140.857 34.7749L140.857 25.1694C140.857 22.7129 139.688 21.4663 137.137 21.4663C134.672 21.4663 133.082 22.9697 133.082 25.3525L133.082 34.7749ZM106.082 34.7749L101.902 34.7749L101.902 18.5698L106.082 18.5698L106.082 34.7749ZM73.9395 26.6724C73.9395 30.082 75.6113 32.0254 78.5371 32.0254C81.4629 32.0254 83.1348 30.082 83.1348 26.6724C83.1348 23.2993 81.4629 21.3198 78.5371 21.3198C75.6113 21.3198 73.9395 23.2993 73.9395 26.6724ZM112.938 26.6724C112.938 30.082 114.609 32.0254 117.535 32.0254C120.418 32.0254 122.09 30.082 122.133 26.6724C122.133 23.2993 120.418 21.3198 117.535 21.3198C114.609 21.3198 112.938 23.2993 112.938 26.6724Z" fill="#000000" fill-opacity="1.000000" fill-rule="evenodd"/>
	</g>
</svg>
