<svg width="110.574219" height="48.000000" viewBox="0 0 110.574 48" fill="none" xmlns="http://www.w3.org/2000/svg" xmlns:xlink="http://www.w3.org/1999/xlink">
	<desc>
			Created with Pixso.
	</desc>
	<defs>
		<clipPath id="clip333_1363">
			<rect width="110.573250" height="48.000000" fill="white" fill-opacity="0"/>
		</clipPath>
	</defs>
	<rect width="110.573250" height="48.000000" fill="#FFFFFF" fill-opacity="0"/>
	<g clip-path="url(#clip333_1363)">
		<path d="M89.9336 20.5972C90.3555 21.2427 90.4941 21.9775 90.5391 22.8032L90.5996 23.9038L90.5996 31.6006L90.6602 32.7026C90.7832 34.502 92.2812 35.8325 94.3262 35.9458L95.5625 36L95.5625 23.9038L95.625 22.8032C95.6758 21.9868 95.8125 21.2383 96.2402 20.5879C96.6777 19.9209 97.3047 19.3677 98.0586 18.9834C98.8145 18.5991 99.6699 18.3979 100.539 18.3994C101.41 18.4004 102.264 18.605 103.018 18.9917C103.77 19.3779 104.395 19.9336 104.828 20.6021C105.25 21.2476 105.383 21.9961 105.434 22.8032L105.494 23.9004L105.494 31.6006L105.557 32.7026C105.684 34.5112 107.17 35.8418 109.221 35.9458L110.459 36L110.459 22.8032C110.459 20.4697 109.412 18.2314 107.551 16.5811C105.689 14.9307 103.166 14.0034 100.531 14.0024C99.123 14.001 97.7305 14.2661 96.4453 14.7803C95.1602 15.2944 94.0156 16.0454 93.084 16.9834C92.1543 16.0459 91.0078 15.2949 89.7227 14.7808C88.4395 14.2666 87.0469 14.0005 85.6367 14.001C83.5762 14.001 81.6621 14.5557 80.0781 15.5132C79.1113 14.5566 76.9473 14.001 75.7051 14.001L75.7051 36L76.9473 35.9458C79.0254 35.8242 80.5254 34.5298 80.6074 32.7026L80.6738 31.6006L80.6738 23.9038L80.7344 22.8032C80.7871 21.9727 80.918 21.2427 81.3398 20.5928C81.7773 19.9263 82.4043 19.373 83.1582 18.9883C83.9121 18.6035 84.7676 18.4009 85.6367 18.4004C86.5078 18.4004 87.3633 18.6035 88.1172 18.9893C88.8711 19.375 89.498 19.9292 89.9336 20.5972ZM4.96289 35.9468L6.20508 36L24.8203 36L24.7598 34.9028C24.5918 33.0942 23.1465 31.7729 21.0996 31.6548L19.8574 31.6006L8.68945 31.6006L23.5801 18.3994L23.5176 17.3032C23.4219 15.4761 21.916 14.1558 19.8574 14.0557L18.6152 14.0059L0 14.001L0.0605469 15.1021C0.224609 16.8931 1.68945 18.2422 3.7207 18.3462L4.96289 18.4004L16.1309 18.4004L1.24219 31.6021L1.30273 32.7026C1.42578 34.5156 2.90234 35.8291 4.96289 35.9458L4.96289 35.9468ZM70.834 17.2212C71.9863 18.2427 72.9004 19.4551 73.5234 20.79C74.1484 22.1245 74.4688 23.5547 74.4688 24.9995C74.4688 26.4438 74.1484 27.8745 73.5234 29.209C72.9004 30.5435 71.9863 31.7563 70.834 32.7778C68.5039 34.8398 65.3477 35.9985 62.0547 35.9985C58.7637 35.9985 55.6055 34.8398 53.2773 32.7778C48.4297 28.4824 48.4297 21.5166 53.2773 17.2212C54.4277 16.2002 55.7949 15.3901 57.3008 14.8374C58.8047 14.2847 60.418 14 62.0469 14C63.6797 13.999 65.2949 14.2832 66.8027 14.8359C68.3105 15.3892 69.6797 16.1997 70.834 17.2222L70.834 17.2212ZM67.3203 20.3364C68.7168 21.5742 69.502 23.2529 69.502 25.0034C69.502 26.7539 68.7168 28.4326 67.3203 29.6709C65.9238 30.9077 64.0293 31.603 62.0547 31.603C60.0801 31.603 58.1855 30.9077 56.7891 29.6709C55.3926 28.4326 54.6094 26.7539 54.6094 25.0034C54.6094 23.2529 55.3926 21.5742 56.7891 20.3364C58.1855 19.0991 60.0801 18.4038 62.0547 18.4038C64.0293 18.4038 65.9238 19.0991 67.3203 20.3364ZM36 14C37.6289 14.0005 39.2422 14.2852 40.7461 14.8379C42.252 15.3911 43.6191 16.2012 44.7695 17.2222C49.6172 21.5166 49.6172 28.4834 44.7695 32.7778C42.4414 34.8398 39.2832 35.9985 35.9922 35.9985C32.6992 35.9985 29.543 34.8398 27.2129 32.7778C22.3672 28.4824 22.3672 21.5166 27.2129 17.2212C28.3652 16.2002 29.7324 15.3901 31.2383 14.8374C32.7422 14.2847 34.3555 14 35.9844 14L36 14ZM41.2578 20.334C42.6543 21.5723 43.4395 23.251 43.4395 25.002C43.4395 26.7524 42.6543 28.4312 41.2578 29.6694C39.8613 30.9067 37.9668 31.6016 35.9922 31.6016C34.0176 31.6016 32.123 30.9067 30.7266 29.6694C29.3301 28.4316 28.5449 26.7524 28.5449 25.0024C28.5449 23.252 29.3301 21.5732 30.7266 20.335C32.123 19.0977 34.0176 18.4028 35.9922 18.4028C37.9668 18.4028 39.8613 19.0977 41.2578 20.335L41.2578 20.334Z" fill="#2D8CFF" fill-opacity="1.000000" fill-rule="evenodd"/>
	</g>
</svg>
