<svg width="20.326172" height="17.701172" viewBox="0 0 20.3262 17.7012" fill="none" xmlns="http://www.w3.org/2000/svg" xmlns:xlink="http://www.w3.org/1999/xlink">
	<desc>
			Created with Pixso.
	</desc>
	<defs/>
	<path d="M2.26172 15.8794L2.25391 15.9067C1.52734 16.3271 0.625 16.0854 0.205078 15.3579C-0.214844 14.6304 0.0273438 13.729 0.753906 13.3091L0.78125 13.3164L2.26172 15.8794ZM16.9863 5.66846L6.8457 2.95117C6.0332 2.7334 5.56641 1.92529 5.78516 1.11377C6.00195 0.302246 6.81055 -0.164062 7.62109 0.0532227L19.2129 3.15918C20.0234 3.37646 20.4902 4.18457 20.2734 4.99609L17.168 16.5874C16.9492 17.3984 16.1426 17.8652 15.3301 17.6479C14.5195 17.4307 14.0527 16.6221 14.2695 15.811L16.9863 5.66846Z" fill="#191A23" fill-opacity="1.000000" fill-rule="nonzero"/>
	<path d="M0.753906 13.3091L18.0742 3.30908L19.5742 5.90674L2.25391 15.9067L0.753906 13.3091ZM2.26172 15.8794L2.25391 15.9067C1.52734 16.3271 0.625 16.0854 0.205078 15.3579C-0.214844 14.6304 0.0273438 13.729 0.753906 13.3091L0.78125 13.3164L2.26172 15.8794ZM16.9863 5.66846L6.8457 2.95117C6.0332 2.7334 5.56641 1.92529 5.78516 1.11377C6.00195 0.302246 6.81055 -0.164062 7.62109 0.0532227L19.2129 3.15918C20.0234 3.37646 20.4902 4.18457 20.2734 4.99609L17.168 16.5874C16.9492 17.3984 16.1426 17.8652 15.3301 17.6479C14.5195 17.4307 14.0527 16.6221 14.2695 15.811L16.9863 5.66846Z" fill="#B9FF66" fill-opacity="1.000000" fill-rule="evenodd"/>
</svg>
