<svg width="23.005859" height="19.982422" viewBox="0 0 23.0059 19.9824" fill="none" xmlns="http://www.w3.org/2000/svg" xmlns:xlink="http://www.w3.org/1999/xlink">
	<desc>
			Created with Pixso.
	</desc>
	<defs/>
	<path d="M21.5059 11.4912L1.50586 11.4912L1.50586 8.49121L21.5059 8.49121L21.5059 11.4912ZM21.4863 8.51074L21.5059 8.49121C22.3457 8.49121 23.0059 9.15137 23.0059 9.99121C23.0059 10.8311 22.3457 11.4912 21.5059 11.4912L21.4863 11.4717L21.4863 8.51074ZM3.62695 9.99121L11.0527 17.416C11.6465 18.0098 11.6465 18.9434 11.0527 19.5371C10.457 20.1309 9.52539 20.1309 8.92969 19.5371L0.445312 11.0518C-0.148438 10.458 -0.148438 9.52441 0.445312 8.93066L8.92969 0.445312C9.52539 -0.148438 10.457 -0.148438 11.0527 0.445312C11.6465 1.03906 11.6465 1.97266 11.0527 2.56641L3.62695 9.99121Z" fill="#FFFFFF" fill-opacity="0.300000" fill-rule="evenodd"/>
</svg>
