<svg width="23.005859" height="19.982422" viewBox="0 0 23.0059 19.9824" fill="none" xmlns="http://www.w3.org/2000/svg" xmlns:xlink="http://www.w3.org/1999/xlink">
	<desc>
			Created with Pixso.
	</desc>
	<defs/>
	<path id="Arrow 3" d="M1.5 8.49121L21.5 8.49121L21.5 11.4912L1.5 11.4912L1.5 8.49121ZM1.51953 11.4717L1.5 11.4912C0.660156 11.4912 0 10.8311 0 9.99121C0 9.15137 0.660156 8.49121 1.5 8.49121L1.51953 8.51074L1.51953 11.4717ZM19.3789 9.99121L11.9531 2.56641C11.3594 1.97266 11.3594 1.03906 11.9531 0.445312C12.5488 -0.148438 13.4805 -0.148438 14.0762 0.445312L22.5605 8.93066C23.1543 9.52441 23.1543 10.458 22.5605 11.0518L14.0762 19.5371C13.4805 20.1309 12.5488 20.1309 11.9531 19.5371C11.3594 18.9434 11.3594 18.0098 11.9531 17.416L19.3789 9.99121Z" fill="#FFFFFF" fill-opacity="1.000000" fill-rule="evenodd"/>
</svg>
