<svg width="17.000000" height="17.000000" viewBox="0 0 17 17" fill="none" xmlns="http://www.w3.org/2000/svg" xmlns:xlink="http://www.w3.org/1999/xlink">
	<desc>
			Created with Pixso.
	</desc>
	<defs/>
	<path d="M2.06445 4.09082C0.900391 4.09082 0 3.1875 0 2.07227C0 0.956055 0.900391 0 2.06445 0C3.17773 0 4.07812 0.956055 4.07812 2.07227C4.07812 3.1875 3.17773 4.09082 2.06445 4.09082ZM13.4512 17L17 17L17 10.7842C17 7.75586 16.3125 5.36523 12.7637 5.36523C11.0684 5.36523 9.9043 6.32227 9.42773 7.22461L9.37305 7.22461L9.37305 5.68457L6.03711 5.68457L6.03711 17L9.5332 17L9.5332 11.4219C9.5332 9.93457 9.79688 8.5 11.6504 8.5C13.4512 8.5 13.4512 10.2002 13.4512 11.4746L13.4512 17ZM3.8125 17L0.318359 17L0.318359 5.68457L3.8125 5.68457L3.8125 17Z" fill="#B9FF66" fill-opacity="1.000000" fill-rule="evenodd"/>
</svg>
