<svg width="17.613281" height="14.303711" viewBox="0 0 17.6133 14.3037" fill="none" xmlns="http://www.w3.org/2000/svg" xmlns:xlink="http://www.w3.org/1999/xlink">
	<desc>
			Created with Pixso.
	</desc>
	<defs/>
	<path d="M15.8203 3.5498C16.5098 3.0332 17.1309 2.41309 17.6133 1.68848C16.9922 1.96484 16.2676 2.17188 15.5449 2.24023C16.3027 1.79199 16.8535 1.10254 17.1309 0.241211C16.4414 0.655273 15.6484 0.964844 14.8555 1.1377C14.166 0.414062 13.2344 0 12.2012 0C10.2031 0 8.58203 1.62012 8.58203 3.61914C8.58203 3.89453 8.61719 4.1709 8.68555 4.44629C5.6875 4.27344 2.99805 2.82617 1.20703 0.655273C0.896484 1.17188 0.724609 1.79199 0.724609 2.48145C0.724609 3.72266 1.34375 4.8252 2.34375 5.48047C1.75781 5.44531 1.17188 5.30762 0.689453 5.03223L0.689453 5.06641C0.689453 6.82422 1.92969 8.27246 3.58398 8.61719C3.30859 8.68555 2.96484 8.75488 2.6543 8.75488C2.41211 8.75488 2.20508 8.71973 1.96484 8.68555C2.41211 10.1328 3.75781 11.167 5.3418 11.2021C4.10156 12.167 2.55078 12.7529 0.861328 12.7529C0.550781 12.7529 0.275391 12.7188 0 12.6836C1.58594 13.7178 3.48047 14.3037 5.54883 14.3037C12.2012 14.3037 15.8203 8.82324 15.8203 4.03223C15.8203 3.86035 15.8203 3.72266 15.8203 3.5498Z" fill="#000000" fill-opacity="1.000000" fill-rule="nonzero"/>
</svg>
