<svg width="494.000000" height="394.268555" viewBox="0 0 494 394.269" fill="none" xmlns="http://www.w3.org/2000/svg" xmlns:xlink="http://www.w3.org/1999/xlink">
	<desc>
			Created with Pixso.
	</desc>
	<defs/>
	<ellipse cx="169.000000" cy="198.500000" rx="168.500000" ry="35.000000" stroke="#000000" stroke-opacity="1.000000" stroke-width="1.000000"/>
	<ellipse cx="169.000000" cy="223.500000" rx="168.500000" ry="35.000000" stroke="#000000" stroke-opacity="1.000000" stroke-width="1.000000"/>
	<ellipse cx="169.000000" cy="248.500000" rx="168.500000" ry="35.000000" stroke="#000000" stroke-opacity="1.000000" stroke-width="1.000000"/>
	<path d="M228.166 66.5381L179.076 19.9575L208.207 81.0381L141.115 72.2075L200.584 104.5L141.115 136.792L208.207 127.962L179.076 189.042L228.166 142.462L240.5 209L252.834 142.462L301.924 189.042L272.793 127.962L339.885 136.792L280.416 104.5L339.885 72.2075L272.793 81.0381L301.924 19.9575L252.834 66.5381L240.5 0L228.166 66.5381ZM240.5 5.48633L228.812 68.5312L182.301 24.3965L209.902 82.27L146.332 73.9033L202.68 104.5L146.332 135.097L209.902 126.73L182.301 184.604L228.812 140.469L240.5 203.514L252.188 140.469L298.699 184.604L271.098 126.73L334.668 135.097L278.32 104.5L334.668 73.9033L271.098 82.27L298.699 24.3965L252.188 68.5312L240.5 5.48633Z" fill="#000000" fill-opacity="1.000000" fill-rule="evenodd"/>
	<path d="M277 177L259.211 222.06L212.891 207.874L237.027 249.876L197.057 277.247L244.945 284.563L241.422 332.879L277 300L312.578 332.879L309.055 284.563L356.943 277.247L316.973 249.876L341.109 207.874L294.789 222.06L277 177Z" fill="#D9D9D9" fill-opacity="1.000000" fill-rule="evenodd"/>
	<path d="M112.195 306.103L135.135 264L158.258 306.103L200.27 329.134L158.258 352.166L135.135 394.269L112.195 352.166L70 329.134L112.195 306.103Z" fill="#B9FF66" fill-opacity="1.000000" fill-rule="nonzero"/>
	<circle cx="152.500000" cy="186.500000" r="62.500000" fill="#000000" fill-opacity="1.000000"/>
	<circle cx="152.500000" cy="186.500000" r="62.000000" stroke="#000000" stroke-opacity="1.000000" stroke-width="1.000000"/>
	<ellipse cx="132.000000" cy="173.000000" rx="10.000000" ry="20.000000" fill="#FFFFFF" fill-opacity="1.000000"/>
	<ellipse cx="173.000000" cy="173.000000" rx="10.000000" ry="20.000000" fill="#FFFFFF" fill-opacity="1.000000"/>
</svg>
