<svg width="691.632812" height="648.250000" viewBox="0 0 691.633 648.25" fill="none" xmlns="http://www.w3.org/2000/svg" xmlns:xlink="http://www.w3.org/1999/xlink">
	<desc>
			Created with Pixso.
	</desc>
	<defs/>
	<mask id="mask341_594" mask-type="alpha" maskUnits="userSpaceOnUse" x="41.710938" y="0.125000" width="649.859375" height="648.000000">
		<path d="M387.916 155.023L388.068 0.125977L386.076 0L366.641 153.715L347.205 0L345.213 0.125L345.213 155.054L306.645 4.97949L304.684 5.35547L324.268 159.033L267.188 14.9082L265.289 15.5254L303.855 165.745L229.15 29.7871L227.346 30.6377L284.582 174.776L193.334 49.2969L191.65 50.3672L266.51 186.334L160.219 73.2832L158.682 74.5566L249.926 199.878L130.443 101.107L129.078 102.563L235.357 215.449L104.328 132.453L103.156 134.068L222.797 232.846L82.3535 166.842L81.3926 168.592L212.412 251.582L64.8418 203.638L64.1074 205.494L204.541 271.493L52.1133 242.362L51.6152 244.295L199.188 292.24L44.3281 282.378L44.0781 284.358L196.506 313.337L41.6484 323.047L41.6484 325.043L196.506 334.754L44.0781 363.732L44.3262 365.713L199.188 356.003L51.6172 403.795L52.1113 405.729L204.57 376.744L64.1074 442.756L64.8418 444.612L212.412 396.668L81.3926 479.658L82.3535 481.408L222.797 415.404L103.156 514.182L104.328 515.797L235.357 432.648L129.078 545.687L130.443 547.142L249.926 448.221L158.682 573.694L160.219 574.967L266.5 461.927L191.65 597.723L193.334 598.793L284.582 473.313L227.346 617.453L229.15 618.305L303.855 482.497L265.289 632.565L267.188 633.183L324.27 489.054L304.684 642.896L306.645 643.271L345.213 493.045L345.213 648.125L347.205 648.25L366.641 494.384L386.076 648.25L388.068 648.124L387.916 493.075L426.477 643.271L428.438 642.896L409.002 489.025L466.094 633.183L467.992 632.565L429.426 482.497L504.131 618.305L505.936 617.453L448.699 473.314L539.947 598.793L541.631 597.723L466.793 461.947L572.902 574.967L574.441 573.694L483.336 448.204L602.838 547.142L604.203 545.687L497.924 432.648L628.953 515.797L630.125 514.182L510.484 415.404L650.928 481.408L651.889 479.658L520.869 396.668L668.439 444.612L669.174 442.756L528.711 376.744L681.17 405.729L681.664 403.795L534.094 356.003L688.955 365.713L689.203 363.732L536.775 334.754L691.633 325.043L691.633 323.047L536.775 313.337L689.203 284.358L688.953 282.378L534.094 292.24L681.666 244.295L681.168 242.362L528.74 271.493L669.174 205.494L668.439 203.638L520.869 251.582L651.889 168.592L650.928 166.842L510.484 232.846L630.125 134.068L628.953 132.453L497.924 215.449L604.203 102.563L602.838 101.107L483.336 199.895L574.441 74.5557L572.902 73.2832L466.781 186.314L541.631 50.3672L539.947 49.2969L448.699 174.776L505.936 30.6377L504.131 29.7871L429.426 165.745L467.992 15.5254L466.094 14.9082L409.002 159.062L428.438 5.35449L426.477 4.97949L387.916 155.023ZM387.912 159.057L386.908 162.962L386.912 158.93L387.061 8.15918L387.068 0.125L386.061 8.0957L367.145 157.7L366.641 161.687L366.137 157.7L347.213 8.03418L346.213 0.125L346.213 162.962L345.213 159.071L307.676 13.0088L305.676 5.22852L306.691 13.1973L325.754 162.786L326.264 166.79L324.777 163.037L269.191 22.6865L266.258 15.2764L268.24 22.9971L305.793 169.271L306.793 173.17L304.855 169.643L232.154 37.3301L228.273 30.2686L231.248 37.7568L286.953 178.036L288.441 181.782L286.07 178.522L197.227 56.3486L192.525 49.8857L196.381 56.8857L269.266 189.264L271.205 192.786L268.449 189.856L164.973 79.7988L159.49 73.9678L164.201 80.4385L253.031 202.446L255.404 205.705L252.299 203.137L136 106.999L129.807 101.878L241.52 220.537L238.117 218.382L110.539 137.571L103.793 133.298L109.951 138.383L226.443 234.56L229.551 237.124L225.904 235.41L81.9277 167.747L88.6875 172.028L216.248 252.828L219.656 254.987L215.82 253.74L72.1484 207.063L64.5332 204.589L71.7812 207.995L208.504 272.25L212.156 273.966L208.193 273.209L59.7852 244.847L51.9258 243.345L59.5352 245.816L203.213 292.496L207.049 293.742L203.023 293.486L52.3145 283.889L44.2637 283.376L52.1895 284.883L200.531 313.085L204.494 313.838L200.469 314.091L49.7012 323.544L41.7109 324.045L49.7012 324.546L200.469 334L204.494 334.253L200.531 335.006L52.1289 363.22L44.2637 364.715L52.2539 364.214L203.023 354.76L207.049 354.508L203.211 355.75L59.5352 402.281L51.9258 404.746L59.7832 403.252L208.207 375.035L212.156 374.284L208.518 375.993L71.7812 440.255L64.5332 443.661L72.1484 441.187L215.82 394.51L219.656 393.263L216.248 395.422L88.6875 476.222L81.9277 480.503L89.1699 477.1L225.904 412.84L229.551 411.126L226.443 413.69L109.992 509.834L103.793 514.952L110.58 510.645L238.117 429.713L241.52 427.553L238.76 430.489L135.314 540.513L129.807 546.372L136 541.243L252.297 444.958L255.404 442.386L253.033 445.647L164.176 567.838L159.49 574.282L164.947 568.478L268.445 458.398L271.205 455.464L269.26 458.992L196.398 591.18L192.525 598.205L197.244 591.718L286.07 469.568L288.441 466.309L286.953 470.055L231.236 610.361L228.273 617.822L232.143 610.789L304.855 478.604L306.793 475.08L305.793 478.975L268.244 625.079L266.258 632.814L269.197 625.39L324.777 485.052L326.264 481.301L325.754 485.303L306.691 635.045L305.676 643.021L307.676 635.233L345.213 489.023L346.213 485.128L346.213 648.125L347.213 640.208L366.137 490.394L366.641 486.404L367.145 490.394L386.061 640.146L387.068 648.125L387.061 640.083L386.912 489.165L386.908 485.128L387.912 489.038L425.461 635.293L427.445 643.021L426.445 635.105L407.521 485.288L407.018 481.301L408.498 485.037L464.084 625.389L467.023 632.814L465.037 625.079L427.488 478.975L426.488 475.08L428.426 478.604L501.139 610.789L505.008 617.822L502.045 610.361L446.328 470.055L444.842 466.309L447.211 469.568L536.037 591.718L540.756 598.205L536.883 591.18L464.027 459.002L462.076 455.464L464.842 458.409L568.182 568.478L573.631 574.282L568.953 567.839L480.238 445.64L477.877 442.386L480.975 444.95L597.281 541.243L603.475 546.372L597.967 540.513L494.521 430.489L491.762 427.553L495.164 429.713L622.701 510.645L629.488 514.952L623.289 509.834L506.838 413.69L503.73 411.126L507.377 412.84L644.111 477.1L651.354 480.503L644.594 476.222L517.033 395.422L513.625 393.263L517.461 394.51L661.133 441.187L668.748 443.661L661.5 440.255L524.764 375.993L521.125 374.284L525.074 375.034L673.498 403.252L681.355 404.746L673.746 402.281L530.07 355.75L526.232 354.508L530.258 354.76L681.027 364.214L689.018 364.715L681.152 363.22L532.75 335.006L528.787 334.253L532.812 334L683.58 324.546L691.57 324.045L683.58 323.544L532.812 314.091L528.787 313.838L532.75 313.085L681.092 284.883L689.018 283.376L680.965 283.889L530.258 293.486L526.232 293.742L530.068 292.496L673.746 245.816L681.355 243.345L673.496 244.847L525.088 273.209L521.125 273.966L524.777 272.25L661.5 207.995L668.748 204.589L661.133 207.063L517.461 253.74L513.625 254.987L517.033 252.828L644.594 172.028L651.354 167.747L644.111 171.15L507.377 235.41L503.73 237.124L506.838 234.56L623.33 138.383L629.488 133.298L622.74 137.572L495.164 218.382L491.762 220.537L494.521 217.605L597.967 107.729L603.475 101.878L597.281 106.999L480.975 203.145L477.877 205.705L480.238 202.454L568.93 80.4385L573.631 73.9678L568.156 79.7998L464.838 189.847L462.076 192.786L464.021 189.254L536.9 56.8857L540.756 49.8857L536.055 56.3486L447.211 178.522L444.842 181.782L446.328 178.036L502.033 37.7568L505.008 30.2686L501.127 37.3301L428.426 169.643L426.488 173.17L427.488 169.271L465.043 22.9971L467.023 15.2764L464.09 22.6875L408.498 163.052L407.018 166.79L407.521 162.801L426.445 13.1367L427.445 5.22852L425.461 12.9492L387.912 159.057Z" fill="#000000" fill-opacity="1.000000" fill-rule="evenodd"/>
	</mask>
	<g mask="url(#mask341_594)">
		<rect x="-785.720703" y="-37.992188" rx="45.000000" width="1152.826538" height="702.852234" fill="#000000" fill-opacity="1.000000"/>
	</g>
	<path d="M95.7148 470.221L141.422 495.125L95.7148 520.229L70.7109 565.835L45.707 520.229L0 495.125L45.707 470.221L70.7109 424.414L95.7148 470.221Z" fill="#B9FF66" fill-opacity="1.000000" fill-rule="nonzero"/>
	<path d="M217.102 243.689L298.777 288.191L217.102 333.05L172.422 414.547L127.742 333.05L46.0664 288.191L127.742 243.689L172.422 161.836L217.102 243.689Z" fill="#191A23" fill-opacity="1.000000" fill-rule="nonzero"/>
</svg>
