<svg width="600.462891" height="515.000000" viewBox="0 0 600.463 515" fill="none" xmlns="http://www.w3.org/2000/svg" xmlns:xlink="http://www.w3.org/1999/xlink">
	<desc>
			Created with Pixso.
	</desc>
	<defs>
		<clipPath id="clip332_1229">
			<rect width="36.000000" height="36.000000" transform="translate(293.000000 427.000000)" fill="white" fill-opacity="0"/>
		</clipPath>
		<clipPath id="clip332_1231">
			<rect width="70.325882" height="70.325882" transform="translate(107.728516 313.000000) rotate(45.000000)" fill="white" fill-opacity="0"/>
		</clipPath>
	</defs>
	<rect width="36.000000" height="36.000000" transform="translate(293.000000 427.000000)" fill="#FFFFFF" fill-opacity="0"/>
	<g clip-path="url(#clip332_1229)">
		<path d="M310.998 432.535L328.6 427.349L323.465 445L328.6 462.601L310.998 457.465L293.348 462.601L298.533 445L293.348 427.349L310.998 432.535Z" fill="#000000" fill-opacity="1.000000" fill-rule="nonzero"/>
		<path d="M328.6 427.349L323.465 445L328.6 462.601L310.998 457.465L293.348 462.601L298.533 445L293.348 427.349L310.998 432.535L328.6 427.349Z" stroke="#FFFFFF" stroke-opacity="1.000000" stroke-width="1.000000"/>
	</g>
	<rect width="70.325882" height="70.325882" transform="translate(107.728516 313.000000) rotate(45.000000)" fill="#FFFFFF" fill-opacity="0"/>
	<g clip-path="url(#clip332_1231)">
		<path d="M124.947 345.509L156.424 362.659L124.947 379.947L107.729 411.354L90.5098 379.947L59.0332 362.659L90.5098 345.509L107.729 313.964L124.947 345.509Z" fill="#000000" fill-opacity="1.000000" fill-rule="nonzero"/>
		<path d="M156.424 362.659L124.947 379.947L107.729 411.354L90.5098 379.947L59.0332 362.659L90.5098 345.509L107.729 313.964L124.947 345.509L156.424 362.659Z" stroke="#FFFFFF" stroke-opacity="1.000000" stroke-width="1.000000"/>
	</g>
	<ellipse rx="282.630463" ry="58.974152" transform="matrix(0.875627 0.875627 -0.482989 0.482989 317.102 252.826)" stroke="#000000" stroke-opacity="1.000000" stroke-width="1.000000"/>
	<ellipse rx="282.630463" ry="58.974152" transform="matrix(0.875627 0.875627 -0.482989 0.482989 296.871 289.5)" stroke="#000000" stroke-opacity="1.000000" stroke-width="1.000000"/>
	<ellipse rx="282.630463" ry="58.974152" transform="matrix(0.875627 0.875627 -0.482989 0.482989 276.643 326.174)" stroke="#000000" stroke-opacity="1.000000" stroke-width="1.000000"/>
	<circle cx="131.500000" cy="104.500000" r="15.500000" fill="#B9FF66" fill-opacity="1.000000"/>
	<circle cx="421.000000" cy="435.000000" r="10.000000" fill="#B9FF66" fill-opacity="1.000000"/>
	<circle cx="81.500000" cy="64.500000" r="23.500000" fill="#000000" fill-opacity="1.000000"/>
	<path d="M305.973 383.59C299.668 385.744 292.463 381.475 289.957 374.071L250.959 259.81L273.748 252.015L312.785 366.433C315.291 373.758 312.236 381.436 305.973 383.59Z" fill="#000000" fill-opacity="1.000000" fill-rule="nonzero"/>
	<path d="M302.564 385C300.725 385 298.846 384.569 297.045 383.668C293.402 381.866 290.506 378.498 289.096 374.345L250.098 260.083C249.941 259.653 250.176 259.144 250.645 258.987L273.434 251.192C273.668 251.113 273.904 251.113 274.1 251.231C274.295 251.349 274.451 251.505 274.529 251.74L313.568 366.159C316.191 373.915 312.902 382.101 306.207 384.412C305.07 384.804 303.818 385 302.564 385ZM252.055 260.358L290.779 373.797C292.033 377.518 294.617 380.574 297.828 382.141C300.412 383.394 303.191 383.629 305.697 382.767C311.492 380.77 314.312 373.562 311.963 366.707L273.199 253.111L252.055 260.358Z" fill="#000000" fill-opacity="1.000000" fill-rule="nonzero"/>
	<path d="M269.713 153.382L195.984 205.988L167.283 235.797L156.006 255.735L155.967 255.892C153.736 259.339 155.027 267.291 159.217 275.399C163.328 283.39 169.123 288.953 173.195 289.266L173.078 289.344L194.73 291.694L235.258 285.231L321.281 254.443L428.215 272.775L428.957 272.814C402.098 267.8 365.84 231.88 339.488 181.076C313.176 130.31 304.797 80.1318 316.348 55.376L316.309 55.376L270.301 152.128L269.713 153.382Z" fill="#B9FF66" fill-opacity="1.000000" fill-rule="nonzero"/>
	<path d="M435.314 131.577C468.047 194.629 473.156 256.873 446.729 270.603C420.301 284.333 372.344 244.349 339.613 181.297C306.881 118.245 301.771 56.001 328.199 42.271C354.627 28.541 402.584 68.5244 435.314 131.577Z" fill="#FFFFFF" fill-opacity="1.000000" fill-rule="evenodd"/>
	<path d="M435.105 274.186C423.594 274.186 409.732 267.761 394.814 255.266C374.494 238.266 354.564 212.06 338.705 181.428C314.703 135.05 304.797 87.4966 313.49 60.2725C316.387 51.1851 321.242 44.8394 327.859 41.4312C341.016 34.6938 359.537 40.4131 380.053 57.5698C400.375 74.5698 420.305 100.775 436.164 131.407C460.205 177.786 470.111 225.339 461.379 252.563C458.482 261.65 453.627 267.996 447.01 271.404C443.445 273.284 439.453 274.186 435.105 274.186ZM339.842 40.4131C335.809 40.4131 332.049 41.2354 328.682 42.998C322.457 46.1709 317.914 52.2031 315.174 60.8604C306.598 87.6924 316.465 134.737 340.271 180.723C372.693 243.279 420.227 283.312 446.266 269.955C452.49 266.782 457.033 260.75 459.773 252.093C468.35 225.261 458.482 178.216 434.676 132.229C406.443 77.7822 366.818 40.4131 339.842 40.4131Z" fill="#000000" fill-opacity="1.000000" fill-rule="nonzero"/>
	<path d="M435.105 274.185C423.594 274.185 409.732 267.761 394.814 255.266C374.494 238.266 354.564 212.06 338.705 181.428C314.703 135.05 304.797 87.4961 313.49 60.2725C316.387 51.1846 321.242 44.8389 327.859 41.4312C336.67 36.8872 348.182 38.0234 361.143 44.6826C373.555 51.0674 386.984 62.3877 400.062 77.3901C400.375 77.7427 400.336 78.291 399.984 78.6045C399.631 78.918 399.084 78.8789 398.77 78.5264C372.223 48.0513 345.361 34.4194 328.682 42.998C322.457 46.1709 317.914 52.2031 315.174 60.8599C306.598 87.6924 316.465 134.736 340.271 180.723C368.463 235.132 408.129 272.54 435.066 272.54C439.1 272.54 442.859 271.717 446.227 269.955C452.451 266.782 456.994 260.75 459.734 252.093C468.311 225.261 458.443 178.216 434.637 132.229C427.549 118.52 419.561 105.632 410.986 93.9204C410.713 93.5288 410.791 92.9805 411.182 92.7061C411.574 92.4316 412.121 92.5103 412.396 92.9019C421.049 104.692 429.037 117.658 436.203 131.446C460.205 177.786 470.111 225.339 461.379 252.563C458.482 261.65 453.627 267.996 447.01 271.404C443.445 273.284 439.453 274.185 435.105 274.185Z" fill="#000000" fill-opacity="1.000000" fill-rule="nonzero"/>
	<path d="M384.137 158.159C391.711 172.75 392.889 187.158 386.766 190.339C380.645 193.52 369.541 184.269 361.965 169.677C354.391 155.085 353.213 140.678 359.336 137.497C365.457 134.316 376.561 143.567 384.137 158.159Z" fill="#B9FF66" fill-opacity="1.000000" fill-rule="evenodd"/>
	<path d="M384.086 191.848C377.352 191.848 367.955 183.152 361.182 170.03C355.543 159.14 353.232 147.937 355.309 141.474C356.051 139.202 357.266 137.596 358.949 136.734C365.605 133.327 377 142.61 384.908 157.848C390.547 168.737 392.857 179.94 390.783 186.403C390.039 188.675 388.824 190.281 387.141 191.143C386.201 191.613 385.184 191.848 384.086 191.848ZM362.004 137.713C361.182 137.713 360.398 137.87 359.732 138.223C358.439 138.889 357.5 140.142 356.914 141.983C354.994 148.016 357.227 158.749 362.67 169.246C369.873 183.152 380.719 192.514 386.318 189.615C387.611 188.949 388.551 187.696 389.139 185.854C391.057 179.783 388.785 169.089 383.383 158.592C377.039 146.41 367.955 137.713 362.004 137.713Z" fill="#B9FF66" fill-opacity="1.000000" fill-rule="nonzero"/>
	<path d="M429.154 259.574C419.053 259.574 406.914 253.934 393.836 243.005C376.061 228.12 358.598 205.166 344.736 178.373C323.709 137.792 315.057 96.1528 322.652 72.2979C325.197 64.3071 329.465 58.7446 335.299 55.7285C348.691 48.8735 368.385 56.7861 389.373 77.4292C389.725 77.7817 389.725 78.291 389.373 78.6436C389.021 78.9961 388.512 78.9961 388.158 78.6436C367.721 58.5488 348.73 50.7148 336.082 57.2563C330.68 60.0371 326.725 65.2471 324.297 72.8071C316.818 96.2314 325.432 137.361 346.264 177.589C370.893 225.182 405.545 257.851 429.115 257.851C432.639 257.851 435.889 257.106 438.865 255.618C444.268 252.837 448.223 247.627 450.65 240.067C458.129 216.643 449.516 175.513 428.686 135.285C422.381 123.142 415.332 111.743 407.736 101.441C407.463 101.049 407.541 100.501 407.932 100.227C408.324 99.9526 408.873 100.031 409.146 100.422C416.82 110.842 423.908 122.28 430.252 134.501C451.277 175.083 459.932 216.721 452.334 240.576C449.789 248.567 445.521 254.129 439.688 257.146C436.477 258.752 432.953 259.574 429.154 259.574Z" fill="#000000" fill-opacity="1.000000" fill-rule="nonzero"/>
	<path d="M194.771 292.517C194.732 292.517 194.693 292.517 194.693 292.517L173.041 290.167C172.922 290.167 172.805 290.128 172.688 290.049C168.225 289.345 162.586 283.704 158.475 275.792C154.09 267.448 152.797 259.3 155.186 255.461L155.225 255.344L166.502 235.367C166.541 235.289 166.58 235.25 166.619 235.21L195.32 205.401C195.359 205.362 195.398 205.323 195.438 205.284L268.971 152.794L315.486 54.9844C315.604 54.7886 315.762 54.6318 315.996 54.5537C316.23 54.4751 316.465 54.4751 316.662 54.5928C317.092 54.7886 317.287 55.2979 317.092 55.7285C305.307 80.9941 314.625 131.211 340.232 180.645C365.879 230.157 401.629 266.821 429.154 271.874C429.586 271.953 429.898 272.344 429.859 272.814C429.82 273.245 429.428 273.559 428.998 273.598L428.254 273.559C428.215 273.559 428.176 273.559 428.137 273.559L321.398 255.266L235.57 285.976C235.531 285.976 235.453 286.015 235.414 286.015L194.889 292.478C194.85 292.517 194.811 292.517 194.771 292.517ZM173.666 288.522L194.771 290.794L235.102 284.331L321.086 253.582C321.242 253.542 321.359 253.503 321.518 253.542L417.604 269.994C391.645 258.595 361.299 224.947 338.785 181.468C316.426 138.301 306.441 94.4688 311.924 66.7749L270.498 153.734C270.42 153.852 270.342 153.97 270.223 154.048L196.572 206.654L167.988 236.307L156.713 256.284C156.713 256.323 156.674 256.362 156.674 256.362C154.637 259.535 156.008 267.37 159.963 275.008C163.838 282.49 169.438 288.13 173.275 288.404C173.432 288.404 173.549 288.443 173.666 288.522Z" fill="#000000" fill-opacity="1.000000" fill-rule="nonzero"/>
	<path d="M269.83 153.068L316.307 55.3369L316.348 55.3369C304.797 80.0928 313.215 130.271 339.488 181.037C365.84 231.88 402.096 267.8 429.035 272.736L428.291 272.697L321.516 254.404L319.049 253.973C306.637 251.779 290.074 235.641 278.209 212.608C266.031 188.988 263.879 165.447 269.281 154.244L269.83 153.068Z" fill="#FFFFFF" fill-opacity="1.000000" fill-rule="nonzero"/>
	<path d="M429.035 273.598L428.252 273.559C428.213 273.559 428.174 273.559 428.135 273.559L321.359 255.266L318.893 254.835C305.775 252.523 289.135 235.719 277.426 213.039C264.152 187.265 263.488 164.311 268.5 153.891L269.086 152.716L315.564 55.0234C315.682 54.8276 315.838 54.6709 316.072 54.5928C316.309 54.5142 316.543 54.5142 316.738 54.6318C317.17 54.8276 317.365 55.3369 317.17 55.7676C305.383 81.0332 314.703 131.25 340.311 180.684C365.957 230.196 401.705 266.86 429.232 271.913C429.662 271.992 429.975 272.383 429.936 272.854C429.818 273.245 429.467 273.598 429.035 273.598ZM311.844 66.7749L270.613 153.46L270.025 154.635C265.053 164.977 266.502 188.087 278.953 212.217C290.426 234.466 306.598 250.917 319.205 253.111L321.672 253.542L417.562 269.994C391.604 258.595 361.258 224.947 338.744 181.467C316.387 138.301 306.402 94.4688 311.844 66.7749Z" fill="#000000" fill-opacity="1.000000" fill-rule="nonzero"/>
	<path d="M193.596 292.4C193.557 292.4 193.518 292.4 193.518 292.4L173 290.207C172.883 290.207 172.766 290.167 172.648 290.089C168.184 289.384 162.547 283.743 158.436 275.831C154.088 267.448 152.797 259.3 155.186 255.461L155.225 255.344L166.5 235.367C166.736 234.936 167.244 234.818 167.676 235.054C168.105 235.289 168.223 235.798 167.988 236.229L156.711 256.284C156.711 256.323 156.672 256.363 156.672 256.363C154.637 259.536 156.008 267.37 159.961 275.008C163.838 282.49 169.438 288.13 173.275 288.404C173.393 288.404 173.549 288.444 173.627 288.522L193.674 290.676C194.145 290.715 194.496 291.146 194.418 291.617C194.379 292.047 194.027 292.4 193.596 292.4Z" fill="#000000" fill-opacity="1.000000" fill-rule="nonzero"/>
	<path d="M194.967 291.539C188.311 291.068 178.99 281.628 172.217 268.584C165.051 254.757 163.367 240.459 167.754 235.367L156.047 255.736L155.967 255.893C153.736 259.34 155.027 267.292 159.217 275.4C163.328 283.391 169.123 288.953 173.195 289.267L173.078 289.345L194.967 291.539Z" fill="#FFFFFF" fill-opacity="1.000000" fill-rule="nonzero"/>
	<path d="M194.967 292.4C194.928 292.4 194.928 292.4 194.889 292.4C194.732 292.4 194.535 292.361 194.379 292.361L173 290.207C172.883 290.207 172.766 290.167 172.648 290.089C168.184 289.384 162.547 283.743 158.436 275.831C154.088 267.448 152.797 259.301 155.186 255.462L155.225 255.344L165.521 237.404C165.914 236.386 166.422 235.484 167.049 234.74C167.322 234.388 167.832 234.349 168.184 234.583C168.537 234.858 168.654 235.328 168.42 235.72L166.971 238.188C164.66 244.416 166.932 256.637 172.883 268.075C179.344 280.57 188.154 289.697 194.457 290.52L194.928 290.559C195.396 290.598 195.75 291.029 195.711 291.499C195.75 292.047 195.396 292.4 194.967 292.4ZM173.627 288.522L188.584 290.05C182.828 286.368 176.484 278.769 171.434 268.976C166.539 259.536 164.111 249.743 164.504 242.692L156.711 256.284C156.711 256.324 156.672 256.363 156.672 256.363C154.637 259.536 156.008 267.37 159.961 275.008C163.838 282.49 169.438 288.13 173.275 288.405C173.393 288.405 173.549 288.444 173.627 288.522Z" fill="#000000" fill-opacity="1.000000" fill-rule="nonzero"/>
	<path d="M233.809 285.388L235.531 285.035C226.211 286.994 211.49 272.892 201.113 252.876C190.502 232.429 188.506 212.021 196.023 205.988L195.045 206.968L167.832 235.249C163.367 240.263 165.012 254.639 172.217 268.544C179.146 281.941 188.975 291.499 195.67 291.459L233.809 285.388Z" fill="#000000" fill-opacity="1.000000" fill-rule="nonzero"/>
	<path d="M195.633 292.36C188.506 292.36 178.6 282.764 171.434 268.976C164.152 254.874 162.311 240.146 167.166 234.701L193.871 206.968C194.34 206.341 194.889 205.792 195.477 205.323C195.828 205.048 196.338 205.087 196.65 205.401C196.963 205.753 196.963 206.263 196.65 206.576L195.123 208.182C189.682 215.468 192.383 234.113 201.896 252.484C212.156 272.305 226.486 285.897 235.258 284.252L235.375 284.213C235.846 284.135 236.275 284.409 236.393 284.879C236.471 285.349 236.197 285.78 235.727 285.897C235.688 285.897 235.648 285.897 235.609 285.937L234.004 286.25L233.965 286.25L195.828 292.321C195.75 292.321 195.672 292.36 195.633 292.36ZM191.6 211.825L168.459 235.876C164.152 240.733 166.109 254.913 173 268.192C179.734 281.197 189.25 290.598 195.633 290.637L229.307 285.271C220.223 282.059 209.023 269.955 200.369 253.307C192.148 237.443 188.977 221.304 191.6 211.825Z" fill="#000000" fill-opacity="1.000000" fill-rule="nonzero"/>
	<path d="M359.342 137.479C353.193 140.612 354.094 155.145 361.926 169.638C375.043 193.885 385.496 191.025 386.711 190.594C386.75 190.594 386.75 190.634 386.711 190.634L364.197 208.77C357.578 199.486 351.275 189.145 345.48 177.981C339.959 167.288 335.299 156.633 331.619 146.292L359.342 137.479Z" fill="#000000" fill-opacity="1.000000" fill-rule="nonzero"/>
	<path d="M364.195 209.631C364.156 209.631 364.117 209.631 364.078 209.631C363.844 209.592 363.648 209.475 363.492 209.279C356.717 199.76 350.414 189.341 344.736 178.412C339.293 167.915 334.596 157.221 330.836 146.645C330.758 146.41 330.758 146.174 330.875 145.979C330.992 145.783 331.148 145.626 331.385 145.548L359.105 136.734C359.537 136.617 360.006 136.812 360.164 137.244C360.32 137.674 360.164 138.145 359.771 138.34C358.439 139.006 357.461 140.338 356.875 142.296C354.955 148.446 357.305 159.336 362.748 169.325C375.551 192.984 385.418 190.281 386.475 189.889C386.867 189.732 387.336 189.929 387.533 190.281C387.729 190.633 387.65 191.143 387.336 191.417L364.744 209.436C364.588 209.553 364.393 209.631 364.195 209.631ZM332.754 146.84C336.475 157.064 341.016 167.405 346.264 177.59C351.744 188.166 357.854 198.233 364.393 207.516L383.93 191.77C379.467 191.574 371.049 188.244 361.182 170.03C355.465 159.493 353.115 148.368 355.189 141.67C355.465 140.808 355.777 140.064 356.17 139.359L332.754 146.84Z" fill="#000000" fill-opacity="1.000000" fill-rule="nonzero"/>
	<path d="M490.65 32.2852C500.01 50.1157 493.086 72.1938 475.186 81.5972C457.287 91.001 435.188 84.1694 425.828 66.3389C416.469 48.5083 423.393 26.4307 441.291 17.0269C459.191 7.62305 481.291 14.4546 490.65 32.2852Z" fill="#000000" fill-opacity="1.000000" fill-rule="evenodd"/>
	<path d="M441.566 41.2354C443.289 38.8848 445.836 37.4355 448.732 37.1221C450.926 36.8872 452.961 37.3574 454.881 38.5322C455.859 39.1201 456.721 39.8643 457.543 40.7651C458.129 39.7075 458.834 38.7676 459.656 37.9839C461.262 36.417 463.182 35.5161 465.334 35.2812C468.232 34.9678 471.051 35.8296 473.244 37.749C475.396 39.6294 476.768 42.3711 477.121 45.4658C477.473 48.6387 476.611 51.6938 474.418 55.0625C472.461 58.0786 469.484 61.2124 466.039 64.8945C464.865 66.1479 463.533 67.5581 462.162 69.0464C461.811 69.4385 461.301 69.7124 460.754 69.7515C460.205 69.8301 459.695 69.6733 459.227 69.3599C457.543 68.1851 455.938 67.0879 454.527 66.1479C450.377 63.3276 446.775 60.8989 444.191 58.3921C441.293 55.6108 439.805 52.7905 439.453 49.6177C439.139 46.5234 439.883 43.5464 441.566 41.2354Z" fill="#FFFFFF" fill-opacity="1.000000" fill-rule="nonzero"/>
	<path d="M576.734 36.1187C589.84 49.228 589.84 70.4829 576.734 83.5923C563.631 96.7021 542.385 96.7021 529.279 83.5923C516.176 70.4829 516.176 49.228 529.279 36.1187C542.385 23.0088 563.631 23.0088 576.734 36.1187Z" fill="#B9FF66" fill-opacity="1.000000" fill-rule="evenodd"/>
	<path d="M553.002 94.2734C534.051 94.2734 518.584 78.8398 518.584 59.8418C518.584 40.8833 534.012 25.4106 553.002 25.4106C571.992 25.4106 587.418 40.8442 587.418 59.8418C587.418 78.8008 571.992 94.2734 553.002 94.2734ZM553.002 27.1343C534.99 27.1343 520.307 41.7842 520.307 59.8418C520.307 77.8604 534.951 92.5498 553.002 92.5498C571.014 92.5498 585.695 77.8999 585.695 59.8418C585.695 41.8232 571.053 27.1343 553.002 27.1343Z" fill="#B9FF66" fill-opacity="1.000000" fill-rule="nonzero"/>
	<path d="M562.086 63.1714C560.205 63.1714 558.561 64.0723 557.465 65.4824L546.148 61.0562C546.148 60.8994 546.188 60.7817 546.188 60.625C546.188 60.3511 546.148 60.0767 546.109 59.8027L557.699 54.436C558.756 55.6504 560.322 56.4341 562.086 56.4731C565.295 56.4731 567.959 53.8486 567.959 50.5977C567.959 47.3462 565.334 44.6826 562.086 44.6826C558.875 44.6826 556.211 47.3071 556.211 50.5581C556.211 50.8325 556.25 51.1064 556.291 51.3809L544.699 56.7471C543.643 55.5332 542.076 54.7495 540.314 54.7104C537.104 54.7104 534.441 57.335 534.441 60.5859C534.441 63.8374 537.064 66.501 540.314 66.501C542.193 66.501 543.838 65.6001 544.936 64.1899L556.25 68.6162C556.25 68.7729 556.211 68.8901 556.211 69.0469C556.211 72.2983 558.836 74.9619 562.086 74.9619C565.295 74.9619 567.959 72.3374 567.959 69.0859C567.92 65.835 565.295 63.2104 562.086 63.1714Z" fill="#000000" fill-opacity="1.000000" fill-rule="nonzero"/>
	<path d="M571.152 142.999C581.756 158.283 577.896 179.322 562.529 189.993C547.162 200.663 526.109 196.923 515.506 181.639C504.9 166.355 508.762 145.315 524.129 134.645C539.494 123.975 560.549 127.715 571.152 142.999Z" fill="#000000" fill-opacity="1.000000" fill-rule="evenodd"/>
	<path d="M534.875 178.373L529.941 151.619C529.705 150.248 530.959 149.112 532.289 149.465L561.461 157.73C562.949 158.161 563.301 160.08 562.088 161.02L537.811 179.509C536.754 180.371 535.148 179.783 534.875 178.373Z" fill="#FFFFFF" fill-opacity="1.000000" fill-rule="nonzero"/>
	<path d="M560.734 248.686C569.916 267.553 561.975 290.34 542.998 299.582C524.021 308.823 501.195 301.021 492.016 282.153C482.834 263.286 490.773 240.5 509.75 231.257C528.727 222.016 551.553 229.819 560.734 248.686Z" fill="#B9FF66" fill-opacity="1.000000" fill-rule="evenodd"/>
	<path d="M526.18 304.347C522.109 304.347 517.959 303.72 513.926 302.349C504.059 299.059 496.07 292.165 491.449 282.842C486.83 273.559 486.125 263.021 489.453 253.15C496.344 232.821 518.506 221.735 538.906 228.512C548.773 231.802 556.762 238.696 561.381 248.019C566.002 257.303 566.707 267.84 563.379 277.711C557.818 294.006 542.508 304.347 526.18 304.347ZM526.572 228.277C510.949 228.277 496.305 238.148 491.02 253.738C487.848 263.178 488.514 273.245 492.938 282.098C497.363 290.99 504.998 297.609 514.434 300.743C533.934 307.207 555.117 296.63 561.695 277.202C564.865 267.761 564.201 257.694 559.775 248.842C555.352 239.95 547.717 233.33 538.279 230.196C534.402 228.865 530.449 228.277 526.572 228.277Z" fill="#000000" fill-opacity="1.000000" fill-rule="nonzero"/>
	<path d="M545.838 259.261C545.447 268.78 529.354 291.029 525.516 296.239C525.125 296.787 524.303 296.748 523.949 296.16C521.523 292.243 513.496 279.082 509.307 268.427C507.623 264.197 506.564 260.358 506.684 257.655C507.113 246.844 516.236 238.422 527.043 238.853C537.85 239.362 546.27 248.45 545.838 259.261Z" fill="#000000" fill-opacity="1.000000" fill-rule="nonzero"/>
	<path d="M532.594 252.141C536.094 255.644 536.094 261.324 532.594 264.827C529.092 268.33 523.414 268.33 519.912 264.827C516.41 261.324 516.41 255.644 519.912 252.141C523.414 248.638 529.092 248.638 532.594 252.141Z" fill="#B9FF66" fill-opacity="1.000000" fill-rule="evenodd"/>
</svg>
