<svg width="219.537109" height="36.000000" viewBox="0 0 219.537 36" fill="none" xmlns="http://www.w3.org/2000/svg" xmlns:xlink="http://www.w3.org/1999/xlink">
	<desc>
			Created with Pixso.
	</desc>
	<defs>
		<clipPath id="clip14_159">
			<rect width="36.000000" height="36.000000" fill="white" fill-opacity="0"/>
		</clipPath>
	</defs>
	<g clip-path="url(#clip14_159)">
		<path d="M17.998 5.53467L35.5996 0.349121L30.4648 18L35.5996 35.6011L17.998 30.4653L0.347656 35.6011L5.5332 18L0.347656 0.349121L17.998 5.53467Z" fill="#000000" fill-opacity="1.000000" fill-rule="nonzero"/>
	</g>
	<path d="M48.9199 31L48.9199 3L60.0391 3Q62.5996 3 64.5996 4.04004Q65.8555 4.65479 66.7617 5.60303Q67.3281 6.19629 67.7598 6.91992Q68.9199 8.75977 68.9199 11.3599L68.9199 11.8799Q68.9199 14.3652 67.8242 16.1929Q67.7734 16.2769 67.7207 16.3599Q67.1875 17.2236 66.4766 17.9019Q65.6406 18.6992 64.5605 19.2402Q62.5605 20.2402 60.0391 20.2402L53.2402 20.2402L53.2402 31L48.9199 31ZM120.299 8.6001Q119.566 8.6001 118.969 8.31641L118.967 8.31641Q118.586 8.13574 118.26 7.83984C117.727 7.30664 117.459 6.62646 117.459 5.7998C117.459 4.97314 117.727 4.30664 118.26 3.7998Q118.629 3.44922 119.066 3.25195L119.066 3.25195Q119.627 3 120.299 3Q121.111 3 121.734 3.34277Q122.062 3.52344 122.34 3.7998C122.873 4.30664 123.139 4.97314 123.139 5.7998C123.139 6.62646 122.873 7.30664 122.34 7.83984Q122.105 8.0625 121.834 8.21973L121.834 8.21973Q121.178 8.6001 120.299 8.6001ZM148.854 8.6001Q148.121 8.6001 147.523 8.31641L147.521 8.31641Q147.141 8.13574 146.814 7.83984C146.281 7.30664 146.014 6.62646 146.014 5.7998C146.014 4.97314 146.281 4.30664 146.814 3.7998Q147.184 3.44922 147.621 3.25195L147.621 3.25195Q148.182 3 148.854 3C149.682 3 150.361 3.2666 150.895 3.7998C151.428 4.30664 151.693 4.97314 151.693 5.7998C151.693 6.62646 151.428 7.30664 150.895 7.83984C150.361 8.34668 149.682 8.6001 148.854 8.6001ZM135.854 31C134.654 31 133.693 30.6401 132.975 29.9199C132.281 29.2002 131.934 28.2402 131.934 27.04L131.934 14.7598L126.494 14.7598L126.494 11.2798L131.934 11.2798L131.934 4.75977L136.055 4.75977L136.055 11.2798L141.934 11.2798L141.934 14.7598L136.055 14.7598L136.055 26.3198C136.055 27.1201 136.428 27.52 137.174 27.52L141.295 27.52L141.295 31L135.854 31ZM53.2402 16.3198L59.5996 16.3198Q61.6914 16.3198 63.0098 15.3101L63.0098 15.3101Q63.127 15.2192 63.2402 15.1201Q63.6504 14.7568 63.9375 14.3135Q64.5996 13.291 64.5996 11.8398L64.5996 11.4399Q64.5996 9.90625 63.8887 8.854L63.8887 8.854Q63.6152 8.45166 63.2402 8.12012Q63.127 8.021 63.0098 7.93018L63.0098 7.93018Q61.6914 6.91992 59.5996 6.91992L53.2402 6.91992L53.2402 16.3198ZM81.834 31.5601C79.8613 31.5601 78.1016 31.1602 76.5547 30.3599C75.0352 29.5332 73.834 28.3599 72.9551 26.8398C72.0742 25.3198 71.6348 23.52 71.6348 21.4399L71.6348 20.8398C71.6348 18.7598 72.0742 16.9731 72.9551 15.48Q73.6816 14.2236 74.7012 13.2827L74.7012 13.2827Q75.5312 12.5166 76.5547 11.96C78.1016 11.1333 79.8613 10.7202 81.834 10.7202C83.8086 10.7202 85.5684 11.1333 87.1152 11.96Q88.2637 12.5737 89.166 13.4424Q90.0879 14.3286 90.7539 15.48C91.6348 16.9731 92.0742 18.7598 92.0742 20.8398L92.0742 21.4399C92.0742 23.52 91.6348 25.3198 90.7539 26.8398Q90.0879 27.9912 89.166 28.8774Q88.2637 29.7461 87.1152 30.3599C85.5684 31.1602 83.8086 31.5601 81.834 31.5601ZM105.283 31.5601C102.777 31.5601 100.697 31 99.0449 29.8799C97.3906 28.7598 96.377 27.0669 96.0039 24.7998L99.8438 23.8799C100.057 24.9731 100.418 25.8398 100.924 26.48C101.43 27.1201 102.057 27.5732 102.805 27.8398C103.578 28.1064 104.404 28.2402 105.283 28.2402C106.59 28.2402 107.59 27.9868 108.283 27.48C109.004 26.9731 109.363 26.3198 109.363 25.52C109.363 24.7202 109.031 24.1333 108.363 23.7598C107.697 23.3867 106.711 23.0801 105.404 22.8398L104.045 22.6001C102.711 22.3599 101.498 22.0132 100.404 21.5601C99.3105 21.1064 98.4434 20.48 97.8047 19.6802Q97.7305 19.5884 97.6621 19.4932Q96.8438 18.3364 96.8438 16.6001C96.8438 14.7334 97.5371 13.2935 98.9238 12.2798Q101.004 10.7202 104.443 10.7202Q107.764 10.7202 109.885 12.2402Q110.932 12.957 111.621 13.9282Q112.354 14.9604 112.684 16.2798L108.844 17.3599C108.604 16.1602 108.098 15.3198 107.324 14.8398Q106.164 14.0801 104.443 14.0801C103.324 14.0801 102.443 14.2935 101.805 14.7202C101.164 15.1201 100.844 15.6934 100.844 16.4399C100.844 17.2402 101.15 17.8267 101.764 18.2002C102.404 18.5732 103.258 18.8535 104.324 19.04L105.725 19.2798C107.137 19.52 108.43 19.8535 109.604 20.2798C110.777 20.7065 111.697 21.3198 112.363 22.1201C113.057 22.9199 113.404 23.9868 113.404 25.3198C113.404 27.2935 112.67 28.8267 111.203 29.9199C109.738 31.0132 107.764 31.5601 105.283 31.5601ZM211.416 31.5601C208.91 31.5601 206.83 31 205.178 29.8799Q204.479 29.4067 203.932 28.7969Q202.539 27.2422 202.137 24.7998L205.977 23.8799C206.189 24.9731 206.551 25.8398 207.057 26.48C207.562 27.1201 208.189 27.5732 208.938 27.8398C209.711 28.1064 210.537 28.2402 211.416 28.2402C212.723 28.2402 213.723 27.9868 214.416 27.48Q215.078 27.0151 215.334 26.3853Q215.496 25.9858 215.496 25.52C215.496 24.7202 215.164 24.1333 214.496 23.7598C213.83 23.3867 212.844 23.0801 211.537 22.8398L210.178 22.6001C208.844 22.3599 207.631 22.0132 206.537 21.5601C205.443 21.1064 204.576 20.48 203.938 19.6802C203.297 18.8799 202.977 17.8535 202.977 16.6001C202.977 14.7334 203.67 13.2935 205.057 12.2798C206.443 11.2402 208.283 10.7202 210.576 10.7202C212.791 10.7202 214.604 11.2266 216.018 12.2402Q217.064 12.957 217.754 13.9282Q218.486 14.9604 218.816 16.2798L214.977 17.3599C214.736 16.1602 214.23 15.3198 213.457 14.8398C212.684 14.3335 211.723 14.0801 210.576 14.0801C209.457 14.0801 208.576 14.2935 207.938 14.7202C207.297 15.1201 206.977 15.6934 206.977 16.4399C206.977 17.2402 207.283 17.8267 207.896 18.2002C208.537 18.5732 209.391 18.8535 210.457 19.04L211.857 19.2798C213.27 19.52 214.562 19.8535 215.736 20.2798C216.91 20.7065 217.83 21.3198 218.496 22.1201C219.189 22.9199 219.537 23.9868 219.537 25.3198C219.537 27.2935 218.803 28.8267 217.336 29.9199C215.871 31.0132 213.896 31.5601 211.416 31.5601ZM118.219 31L118.219 11.2798L122.34 11.2798L122.34 31L118.219 31ZM146.773 31L146.773 11.2798L150.895 11.2798L150.895 31L146.773 31ZM161.568 31L154.928 11.2798L159.289 11.2798L164.529 27.96L165.168 27.96L170.408 11.2798L174.77 11.2798L168.129 31L161.568 31ZM186.326 31.3599C184.834 31.3599 183.5 31.0269 182.326 30.3599C181.152 29.6934 180.232 28.7466 179.566 27.52C178.9 26.2935 178.566 24.8267 178.566 23.1201L178.566 11.2798L182.686 11.2798L182.686 22.8398Q182.686 25.3989 183.965 26.6387L183.967 26.6401C184.82 27.4399 186.006 27.8398 187.527 27.8398Q189.188 27.8398 190.414 27.1099L190.414 27.1099Q191.049 26.7324 191.566 26.1602C192.607 25.0132 193.127 23.3735 193.127 21.2402L193.127 11.2798L197.246 11.2798L197.246 31L193.207 31L193.207 28.04L192.566 28.04C192.193 28.8398 191.527 29.6001 190.566 30.3198C189.607 31.0132 188.193 31.3599 186.326 31.3599ZM81.834 27.8799Q83.7383 27.8799 85.1348 27.0366Q85.7305 26.6758 86.2344 26.1602Q86.4668 25.9224 86.668 25.6602Q87.9551 23.9839 87.9551 21.3198L87.9551 20.96C87.9551 18.9067 87.3945 17.3066 86.2754 16.1602C85.1543 14.9868 83.6738 14.3999 81.834 14.3999C80.0488 14.3999 78.582 14.9868 77.4355 16.1602Q77.2617 16.3379 77.1055 16.5303Q75.7539 18.1987 75.7539 20.96L75.7539 21.3198Q75.7539 24.063 77.0879 25.7593L77.0879 25.7598Q77.252 25.9678 77.4355 26.1602C78.582 27.3066 80.0488 27.8799 81.834 27.8799Z" fill="#000000" fill-opacity="1.000000" fill-rule="evenodd"/>
</svg>
