<svg width="180.000000" height="29.000000" viewBox="0 0 180 29" fill="none" xmlns="http://www.w3.org/2000/svg" xmlns:xlink="http://www.w3.org/1999/xlink">
	<desc>
			Created with Pixso.
	</desc>
	<defs>
		<clipPath id="clip77_182">
			<rect width="29.516691" height="29.000000" fill="white" fill-opacity="0"/>
		</clipPath>
	</defs>
	<g clip-path="url(#clip77_182)">
		<path d="M14.7578 4.45898L29.1895 0.28125L24.9785 14.5L29.1895 28.6787L14.7578 24.542L0.285156 28.6787L4.53711 14.5L0.285156 0.28125L14.7578 4.45898Z" fill="#FFFFFF" fill-opacity="1.000000" fill-rule="nonzero"/>
	</g>
	<path d="M40.1094 24.9717L40.1094 2.41602L49.2266 2.41602Q51.3262 2.41602 52.9648 3.25391C54.0801 3.79102 54.9434 4.56445 55.5566 5.57422Q56.5078 7.05566 56.5078 9.15039L56.5078 9.56934Q56.5078 11.5195 55.6543 12.9678Q55.5918 13.0742 55.5234 13.1787Q55.1152 13.8271 54.582 14.3457Q53.8691 15.0381 52.9336 15.498Q51.293 16.3037 49.2266 16.3037L43.6523 16.3037L43.6523 24.9717L40.1094 24.9717ZM98.6348 6.92676C97.9785 6.92676 97.4199 6.72266 96.9609 6.31445C96.5234 5.88574 96.3047 5.33789 96.3047 4.67188C96.3047 4.00586 96.5234 3.46875 96.9609 3.06055C97.4199 2.63086 97.9785 2.41602 98.6348 2.41602C99.3125 2.41602 99.8691 2.63086 100.307 3.06055C100.744 3.46875 100.963 4.00586 100.963 4.67188C100.963 5.33789 100.744 5.88574 100.307 6.31445C99.8691 6.72266 99.3125 6.92676 98.6348 6.92676ZM122.047 6.92676C121.391 6.92676 120.832 6.72266 120.373 6.31445Q120.135 6.08105 119.984 5.7998Q119.719 5.30762 119.719 4.67188Q119.719 4.00586 120.01 3.5127Q120.154 3.26465 120.373 3.06055C120.832 2.63086 121.391 2.41602 122.047 2.41602C122.725 2.41602 123.281 2.63086 123.719 3.06055C124.156 3.46875 124.375 4.00586 124.375 4.67188C124.375 5.33789 124.156 5.88574 123.719 6.31445C123.281 6.72266 122.725 6.92676 122.047 6.92676ZM111.387 24.9717C110.404 24.9717 109.617 24.6816 109.025 24.1016C108.457 23.5215 108.174 22.748 108.174 21.7812L108.174 11.8896L103.713 11.8896L103.713 9.08594L108.174 9.08594L108.174 3.83398L111.551 3.83398L111.551 9.08594L116.373 9.08594L116.373 11.8896L111.551 11.8896L111.551 21.2012C111.551 21.8457 111.857 22.168 112.469 22.168L115.848 22.168L115.848 24.9717L111.387 24.9717ZM43.6523 13.1465L48.8652 13.1465Q50.6191 13.1465 51.709 12.2959Q51.7812 12.2393 51.8496 12.1797C52.5938 11.5352 52.9648 10.6543 52.9648 9.53711L52.9648 9.21484Q52.9648 8.00879 52.4102 7.17285L52.4102 7.17285Q52.1777 6.82422 51.8496 6.54004Q51.7812 6.48047 51.709 6.42383L51.709 6.42383Q50.6191 5.57422 48.8652 5.57422L43.6523 5.57422L43.6523 13.1465ZM67.0957 25.4229C65.4785 25.4229 64.0352 25.1006 62.7676 24.4561C61.5215 23.79 60.5371 22.8447 59.8164 21.6201Q58.7324 19.7842 58.7324 17.2705L58.7324 16.7871Q58.7324 14.2734 59.8164 12.4697C60.5371 11.2451 61.5215 10.2998 62.7676 9.63379C64.0352 8.96777 65.4785 8.63477 67.0957 8.63477C68.7148 8.63477 70.1582 8.96777 71.4258 9.63379C72.6934 10.2998 73.6875 11.2451 74.4102 12.4697C75.1309 13.6719 75.4922 15.1113 75.4922 16.7871L75.4922 17.2705C75.4922 18.9463 75.1309 20.3965 74.4102 21.6201C73.6875 22.8447 72.6934 23.79 71.4258 24.4561C70.1582 25.1006 68.7148 25.4229 67.0957 25.4229ZM86.3223 25.4229Q83.2402 25.4229 81.207 24.0693C79.8516 23.167 79.0195 21.8027 78.7148 19.9775L81.8633 19.2363C82.0371 20.1172 82.332 20.8145 82.748 21.3301C83.1641 21.8457 83.6777 22.2109 84.2891 22.4258Q85.2402 22.748 86.3223 22.748C87.3945 22.748 88.2148 22.5439 88.7832 22.1357C89.373 21.7275 89.668 21.2012 89.668 20.5566C89.668 19.9131 89.3945 19.4404 88.8477 19.1396C88.3008 18.8389 87.4922 18.5918 86.4219 18.3984L85.3066 18.2051C84.2129 18.0117 83.2188 17.7324 82.3223 17.3672C81.4258 17.002 80.7148 16.4971 80.1895 15.8525Q80.1133 15.7578 80.043 15.6582L80.043 15.6582Q79.4023 14.7373 79.4023 13.3711C79.4023 11.8682 79.9707 10.708 81.1074 9.8916C82.2441 9.05371 83.7539 8.63477 85.6348 8.63477C87.4492 8.63477 88.9355 9.04297 90.0938 9.85938C91.2754 10.6543 92.041 11.7393 92.3906 13.1143L89.2422 13.9834C89.0449 13.0176 88.6289 12.3408 87.9961 11.9541C87.3613 11.5459 86.5742 11.3418 85.6348 11.3418Q84.2559 11.3418 83.4688 11.8574C82.9453 12.1797 82.6816 12.6416 82.6816 13.2432C82.6816 13.8867 82.9336 14.3594 83.4375 14.6602C83.9609 14.9609 84.6602 15.1865 85.5352 15.3369L86.6836 15.5303C87.8418 15.7236 88.9023 15.9922 89.8652 16.3359C90.8262 16.6797 91.582 17.1738 92.127 17.8184C92.6953 18.4629 92.9805 19.3223 92.9805 20.3965C92.9805 21.9854 92.3789 23.2207 91.1758 24.1016C89.9746 24.9824 88.3555 25.4229 86.3223 25.4229ZM173.342 25.4229C171.287 25.4229 169.582 24.9717 168.227 24.0693C166.869 23.167 166.039 21.8027 165.732 19.9775L168.881 19.2363C169.057 20.1172 169.352 20.8145 169.768 21.3301C170.182 21.8457 170.697 22.2109 171.309 22.4258C171.943 22.6406 172.621 22.748 173.342 22.748C174.414 22.748 175.232 22.5439 175.801 22.1357C176.393 21.7275 176.688 21.2012 176.688 20.5566C176.688 19.9131 176.414 19.4404 175.867 19.1396C175.32 18.8389 174.512 18.5918 173.439 18.3984L172.324 18.2051C171.232 18.0117 170.236 17.7324 169.34 17.3672C168.443 17.002 167.734 16.4971 167.209 15.8525C166.684 15.208 166.422 14.3809 166.422 13.3711C166.422 11.8682 166.99 10.708 168.127 9.8916C169.264 9.05371 170.773 8.63477 172.652 8.63477C174.469 8.63477 175.955 9.04297 177.113 9.85938C178.295 10.6543 179.059 11.7393 179.41 13.1143L176.262 13.9834C176.064 13.0176 175.648 12.3408 175.014 11.9541C174.381 11.5459 173.594 11.3418 172.652 11.3418C171.734 11.3418 171.014 11.5137 170.488 11.8574C169.963 12.1797 169.701 12.6416 169.701 13.2432C169.701 13.8867 169.953 14.3594 170.455 14.6602C170.98 14.9609 171.68 15.1865 172.555 15.3369L173.703 15.5303C174.861 15.7236 175.922 15.9922 176.885 16.3359C177.846 16.6797 178.6 17.1738 179.146 17.8184C179.715 18.4629 180 19.3223 180 20.3965C180 21.9854 179.398 23.2207 178.195 24.1016C176.994 24.9824 175.375 25.4229 173.342 25.4229ZM96.9297 24.9717L96.9297 9.08594L100.307 9.08594L100.307 24.9717L96.9297 24.9717ZM120.342 24.9717L120.342 9.08594L123.719 9.08594L123.719 24.9717L120.342 24.9717ZM132.471 24.9717L127.027 9.08594L130.602 9.08594L134.898 22.5225L135.422 22.5225L139.719 9.08594L143.293 9.08594L137.85 24.9717L132.471 24.9717ZM152.77 25.2617C151.545 25.2617 150.453 24.9932 149.49 24.4561C148.529 23.9189 147.773 23.1562 147.229 22.168C146.682 21.1797 146.408 19.999 146.408 18.624L146.408 9.08594L149.785 9.08594L149.785 18.3984C149.785 19.7734 150.135 20.793 150.836 21.459C151.535 22.1035 152.508 22.4258 153.754 22.4258C155.131 22.4258 156.236 21.9746 157.066 21.0723Q158.346 19.6875 158.346 17.1094L158.346 9.08594L161.723 9.08594L161.723 24.9717L158.41 24.9717L158.41 22.5869L157.887 22.5869C157.58 23.2314 157.033 23.8438 156.246 24.4238C155.459 24.9824 154.301 25.2617 152.77 25.2617ZM67.0957 22.458C68.584 22.458 69.7852 21.9961 70.7031 21.0723Q70.9219 20.8535 71.1055 20.6104L71.1055 20.6104Q72.1133 19.2725 72.1133 17.1738L72.1133 16.8838C72.1133 15.2295 71.6543 13.9404 70.7363 13.0176Q70.3477 12.6162 69.8867 12.3281L69.8867 12.3281Q68.7188 11.5996 67.0957 11.5996C65.6309 11.5996 64.4297 12.0723 63.4883 13.0176Q63.3203 13.1865 63.1719 13.373Q62.1113 14.707 62.1113 16.8838L62.1113 17.1738Q62.1113 19.3359 63.1562 20.6904Q63.3105 20.8906 63.4883 21.0723C64.4297 21.9961 65.6309 22.458 67.0957 22.458Z" fill="#FFFFFF" fill-opacity="1.000000" fill-rule="evenodd"/>
</svg>
